<svg width="3000" height="2000" viewBox="0 0 3000 2000" fill="none" xmlns="http://www.w3.org/2000/svg">
<g style="mix-blend-mode:overlay">
<path d="M1701.68 0.872513H1631.88V71.9369M1701.68 0.872513V71.9369M1701.68 0.872513H1771.48M1701.68 71.9369H1631.88M1701.68 71.9369V143.001M1701.68 71.9369H1771.48M1631.88 71.9369V143.001M1701.68 143.001H1631.88M1701.68 143.001V214.066M1701.68 143.001H1771.48M1631.88 143.001V214.066M1701.68 214.066H1631.88M1701.68 214.066V285.13M1701.68 214.066H1771.48M1631.88 214.066V285.13M1701.68 285.13H1631.88M1701.68 285.13V356.195M1701.68 285.13H1771.48M1631.88 285.13V356.195M1701.68 356.195H1631.88M1701.68 356.195V427.259M1701.68 356.195H1771.48M1631.88 356.195V427.259M1701.68 427.259H1631.88M1701.68 427.259V498.324M1701.68 427.259H1771.48M1631.88 427.259V498.324M1701.68 498.324H1631.88M1701.68 498.324V569.388M1701.68 498.324H1771.48M1631.88 498.324V569.388M1701.68 569.388H1631.88M1701.68 569.388V640.452M1701.68 569.388H1771.48M1631.88 569.388V640.452M1701.68 640.452H1631.88M1701.68 640.452V711.517M1701.68 640.452H1771.48M1631.88 640.452V711.517M1701.68 711.517H1631.88M1701.68 711.517V782.581M1701.68 711.517H1771.48M1631.88 711.517V782.581M1701.68 782.581H1631.88M1701.68 782.581V853.646M1701.68 782.581H1771.48M1631.88 782.581V853.646M1701.68 853.646H1631.88M1701.68 853.646V924.71M1701.68 853.646H1771.48M1631.88 853.646V924.71M1701.68 924.71H1631.88M1701.68 924.71V995.775M1701.68 924.71H1771.48M1631.88 924.71V995.775M1701.68 995.775H1631.88M1701.68 995.775V1066.84M1701.68 995.775H1771.48M1631.88 995.775V1066.84M1701.68 1066.84H1631.88M1701.68 1066.84V1137.9M1701.68 1066.84H1771.48M1631.88 1066.84V1137.9M1701.68 1137.9H1631.88M1701.68 1137.9V1208.97M1701.68 1137.9H1771.48M1631.88 1137.9V1208.97M1701.68 1208.97H1631.88M1701.68 1208.97V1280.03M1701.68 1208.97H1771.48M1631.88 1208.97V1280.03M1701.68 1280.03H1631.88M1701.68 1280.03V1351.1M1701.68 1280.03H1771.48M1631.88 1280.03V1351.1H1701.68M1701.68 1351.1H1771.48M1771.48 0.872513V71.9369M1771.48 0.872513H1841.28M1771.48 71.9369V143.001M1771.48 71.9369H1841.28M1771.48 143.001V214.066M1771.48 143.001H1841.28M1771.48 214.066V285.13M1771.48 214.066H1841.28M1771.48 285.13V356.195M1771.48 285.13H1841.28M1771.48 356.195V427.259M1771.48 356.195H1841.28M1771.48 427.259V498.324M1771.48 427.259H1841.28M1771.48 498.324V569.388M1771.48 498.324H1841.28M1771.48 569.388V640.452M1771.48 569.388H1841.28M1771.48 640.452V711.517M1771.48 640.452H1841.28M1771.48 711.517V782.581M1771.48 711.517H1841.28M1771.48 782.581V853.646M1771.48 782.581H1841.28M1771.48 853.646V924.71M1771.48 853.646H1841.28M1771.48 924.71V995.775M1771.48 924.71H1841.28M1771.48 995.775V1066.84M1771.48 995.775H1841.28M1771.48 1066.84V1137.9M1771.48 1066.84H1841.28M1771.48 1137.9V1208.97M1771.48 1137.9H1841.28M1771.48 1208.97V1280.03M1771.48 1208.97H1841.28M1771.48 1280.03V1351.1M1771.48 1280.03H1841.28M1771.48 1351.1H1841.28M1841.28 0.872513V71.9369M1841.28 0.872513H1911.08M1841.28 71.9369V143.001M1841.28 71.9369H1911.08M1841.28 143.001V214.066M1841.28 143.001H1911.08M1841.28 214.066V285.13M1841.28 214.066H1911.08M1841.28 285.13V356.195M1841.28 285.13H1911.08M1841.28 356.195V427.259M1841.28 356.195H1911.08M1841.28 427.259V498.324M1841.28 427.259H1911.08M1841.28 498.324V569.388M1841.28 498.324H1911.08M1841.28 569.388V640.452M1841.28 569.388H1911.08M1841.28 640.452V711.517M1841.28 640.452H1911.08M1841.28 711.517V782.581M1841.28 711.517H1911.08M1841.28 782.581V853.646M1841.28 782.581H1911.08M1841.28 853.646V924.71M1841.28 853.646H1911.08M1841.28 924.71V995.775M1841.28 924.71H1911.08M1841.28 995.775V1066.84M1841.28 995.775H1911.08M1841.28 1066.84V1137.9M1841.28 1066.84H1911.08M1841.28 1137.9V1208.97M1841.28 1137.9H1911.08M1841.28 1208.97V1280.03M1841.28 1208.97H1911.08M1841.28 1280.03V1351.1M1841.28 1280.03H1911.08M1841.28 1351.1H1911.08M1911.08 0.872513V71.9369M1911.08 0.872513H1980.89M1911.08 71.9369V143.001M1911.08 71.9369H1980.89M1911.08 143.001V214.066M1911.08 143.001H1980.89M1911.08 214.066V285.13M1911.08 214.066H1980.89M1911.08 285.13V356.195M1911.08 285.13H1980.89M1911.08 356.195V427.259M1911.08 356.195H1980.89M1911.08 427.259V498.324M1911.08 427.259H1980.89M1911.08 498.324V569.388M1911.08 498.324H1980.89M1911.08 569.388V640.452M1911.08 569.388H1980.89M1911.08 640.452V711.517M1911.08 640.452H1980.89M1911.08 711.517V782.581M1911.08 711.517H1980.89M1911.08 782.581V853.646M1911.08 782.581H1980.89M1911.08 853.646V924.71M1911.08 853.646H1980.89M1911.08 924.71V995.775M1911.08 924.71H1980.89M1911.08 995.775V1066.84M1911.08 995.775H1980.89M1911.08 1066.84V1137.9M1911.08 1066.84H1980.89M1911.08 1137.9V1208.97M1911.08 1137.9H1980.89M1911.08 1208.97V1280.03M1911.08 1208.97H1980.89M1911.08 1280.03V1351.1M1911.08 1280.03H1980.89M1911.08 1351.1H1980.89M1980.89 0.872513V71.9369M1980.89 0.872513H2050.69M1980.89 71.9369V143.001M1980.89 71.9369H2050.69M1980.89 143.001V214.066M1980.89 143.001H2050.69M1980.89 214.066V285.13M1980.89 214.066H2050.69M1980.89 285.13V356.195M1980.89 285.13H2050.69M1980.89 356.195V427.259M1980.89 356.195H2050.69M1980.89 427.259V498.324M1980.89 427.259H2050.69M1980.89 498.324V569.388M1980.89 498.324H2050.69M1980.89 569.388V640.452M1980.89 569.388H2050.69M1980.89 640.452V711.517M1980.89 640.452H2050.69M1980.89 711.517V782.581M1980.89 711.517H2050.69M1980.89 782.581V853.646M1980.89 782.581H2050.69M1980.89 853.646V924.71M1980.89 853.646H2050.69M1980.89 924.71V995.775M1980.89 924.71H2050.69M1980.89 995.775V1066.84M1980.89 995.775H2050.69M1980.89 1066.84V1137.9M1980.89 1066.84H2050.69M1980.89 1137.9V1208.97M1980.89 1137.9H2050.69M1980.89 1208.97V1280.03M1980.89 1208.97H2050.69M1980.89 1280.03V1351.1M1980.89 1280.03H2050.69M1980.89 1351.1H2050.69M2050.69 0.872513V71.9369M2050.69 0.872513H2120.49M2050.69 71.9369V143.001M2050.69 71.9369H2120.49M2050.69 143.001V214.066M2050.69 143.001H2120.49M2050.69 214.066V285.13M2050.69 214.066H2120.49M2050.69 285.13V356.195M2050.69 285.13H2120.49M2050.69 356.195V427.259M2050.69 356.195H2120.49M2050.69 427.259V498.324M2050.69 427.259H2120.49M2050.69 498.324V569.388M2050.69 498.324H2120.49M2050.69 569.388V640.452M2050.69 569.388H2120.49M2050.69 640.452V711.517M2050.69 640.452H2120.49M2050.69 711.517V782.581M2050.69 711.517H2120.49M2050.69 782.581V853.646M2050.69 782.581H2120.49M2050.69 853.646V924.71M2050.69 853.646H2120.49M2050.69 924.71V995.775M2050.69 924.71H2120.49M2050.69 995.775V1066.84M2050.69 995.775H2120.49M2050.69 1066.84V1137.9M2050.69 1066.84H2120.49M2050.69 1137.9V1208.97M2050.69 1137.9H2120.49M2050.69 1208.97V1280.03M2050.69 1208.97H2120.49M2050.69 1280.03V1351.1M2050.69 1280.03H2120.49M2050.69 1351.1H2120.49M2120.49 0.872513V71.9369M2120.49 0.872513H2190.29M2120.49 71.9369V143.001M2120.49 71.9369H2190.29M2120.49 143.001V214.066M2120.49 143.001H2190.29M2120.49 214.066V285.13M2120.49 214.066H2190.29M2120.49 285.13V356.195M2120.49 285.13H2190.29M2120.49 356.195V427.259M2120.49 356.195H2190.29M2120.49 427.259V498.324M2120.49 427.259H2190.29M2120.49 498.324V569.388M2120.49 498.324H2190.29M2120.49 569.388V640.452M2120.49 569.388H2190.29M2120.49 640.452V711.517M2120.49 640.452H2190.29M2120.49 711.517V782.581M2120.49 711.517H2190.29M2120.49 782.581V853.646M2120.49 782.581H2190.29M2120.49 853.646V924.71M2120.49 853.646H2190.29M2120.49 924.71V995.775M2120.49 924.71H2190.29M2120.49 995.775V1066.84M2120.49 995.775H2190.29M2120.49 1066.84V1137.9M2120.49 1066.84H2190.29M2120.49 1137.9V1208.97M2120.49 1137.9H2190.29M2120.49 1208.97V1280.03M2120.49 1208.97H2190.29M2120.49 1280.03V1351.1M2120.49 1280.03H2190.29M2120.49 1351.1H2190.29M2190.29 0.872513V71.9369M2190.29 0.872513H2260.09M2190.29 71.9369V143.001M2190.29 71.9369H2260.09M2190.29 143.001V214.066M2190.29 143.001H2260.09M2190.29 214.066V285.13M2190.29 214.066H2260.09M2190.29 285.13V356.195M2190.29 285.13H2260.09M2190.29 356.195V427.259M2190.29 356.195H2260.09M2190.29 427.259V498.324M2190.29 427.259H2260.09M2190.29 498.324V569.388M2190.29 498.324H2260.09M2190.29 569.388V640.452M2190.29 569.388H2260.09M2190.29 640.452V711.517M2190.29 640.452H2260.09M2190.29 711.517V782.581M2190.29 711.517H2260.09M2190.29 782.581V853.646M2190.29 782.581H2260.09M2190.29 853.646V924.71M2190.29 853.646H2260.09M2190.29 924.71V995.775M2190.29 924.71H2260.09M2190.29 995.775V1066.84M2190.29 995.775H2260.09M2190.29 1066.84V1137.9M2190.29 1066.84H2260.09M2190.29 1137.9V1208.97M2190.29 1137.9H2260.09M2190.29 1208.97V1280.03M2190.29 1208.97H2260.09M2190.29 1280.03V1351.1M2190.29 1280.03H2260.09M2190.29 1351.1H2260.09M2260.09 0.872513V71.9369M2260.09 0.872513H2329.89M2260.09 71.9369V143.001M2260.09 71.9369H2329.89M2260.09 143.001V214.066M2260.09 143.001H2329.89M2260.09 214.066V285.13M2260.09 214.066H2329.89M2260.09 285.13V356.195M2260.09 285.13H2329.89M2260.09 356.195V427.259M2260.09 356.195H2329.89M2260.09 427.259V498.324M2260.09 427.259H2329.89M2260.09 498.324V569.388M2260.09 498.324H2329.89M2260.09 569.388V640.452M2260.09 569.388H2329.89M2260.09 640.452V711.517M2260.09 640.452H2329.89M2260.09 711.517V782.581M2260.09 711.517H2329.89M2260.09 782.581V853.646M2260.09 782.581H2329.89M2260.09 853.646V924.71M2260.09 853.646H2329.89M2260.09 924.71V995.775M2260.09 924.71H2329.89M2260.09 995.775V1066.84M2260.09 995.775H2329.89M2260.09 1066.84V1137.9M2260.09 1066.84H2329.89M2260.09 1137.9V1208.97M2260.09 1137.9H2329.89M2260.09 1208.97V1280.03M2260.09 1208.97H2329.89M2260.09 1280.03V1351.1M2260.09 1280.03H2329.89M2260.09 1351.1H2329.89M2329.89 0.872513V71.9369M2329.89 0.872513H2399.69M2329.89 71.9369V143.001M2329.89 71.9369H2399.69M2329.89 143.001V214.066M2329.89 143.001H2399.69M2329.89 214.066V285.13M2329.89 214.066H2399.69M2329.89 285.13V356.195M2329.89 285.13H2399.69M2329.89 356.195V427.259M2329.89 356.195H2399.69M2329.89 427.259V498.324M2329.89 427.259H2399.69M2329.89 498.324V569.388M2329.89 498.324H2399.69M2329.89 569.388V640.452M2329.89 569.388H2399.69M2329.89 640.452V711.517M2329.89 640.452H2399.69M2329.89 711.517V782.581M2329.89 711.517H2399.69M2329.89 782.581V853.646M2329.89 782.581H2399.69M2329.89 853.646V924.71M2329.89 853.646H2399.69M2329.89 924.71V995.775M2329.89 924.71H2399.69M2329.89 995.775V1066.84M2329.89 995.775H2399.69M2329.89 1066.84V1137.9M2329.89 1066.84H2399.69M2329.89 1137.9V1208.97M2329.89 1137.9H2399.69M2329.89 1208.97V1280.03M2329.89 1208.97H2399.69M2329.89 1280.03V1351.1M2329.89 1280.03H2399.69M2329.89 1351.1H2399.69M2399.69 0.872513V71.9369M2399.69 0.872513H2469.49M2399.69 71.9369V143.001M2399.69 71.9369H2469.49M2399.69 143.001V214.066M2399.69 143.001H2469.49M2399.69 214.066V285.13M2399.69 214.066H2469.49M2399.69 285.13V356.195M2399.69 285.13H2469.49M2399.69 356.195V427.259M2399.69 356.195H2469.49M2399.69 427.259V498.324M2399.69 427.259H2469.49M2399.69 498.324V569.388M2399.69 498.324H2469.49M2399.69 569.388V640.452M2399.69 569.388H2469.49M2399.69 640.452V711.517M2399.69 640.452H2469.49M2399.69 711.517V782.581M2399.69 711.517H2469.49M2399.69 782.581V853.646M2399.69 782.581H2469.49M2399.69 853.646V924.71M2399.69 853.646H2469.49M2399.69 924.71V995.775M2399.69 924.71H2469.49M2399.69 995.775V1066.84M2399.69 995.775H2469.49M2399.69 1066.84V1137.9M2399.69 1066.84H2469.49M2399.69 1137.9V1208.97M2399.69 1137.9H2469.49M2399.69 1208.97V1280.03M2399.69 1208.97H2469.49M2399.69 1280.03V1351.1M2399.69 1280.03H2469.49M2399.69 1351.1H2469.49M2469.49 0.872513V71.9369M2469.49 0.872513H2539.29M2469.49 71.9369V143.001M2469.49 71.9369H2539.29M2469.49 143.001V214.066M2469.49 143.001H2539.29M2469.49 214.066V285.13M2469.49 214.066H2539.29M2469.49 285.13V356.195M2469.49 285.13H2539.29M2469.49 356.195V427.259M2469.49 356.195H2539.29M2469.49 427.259V498.324M2469.49 427.259H2539.29M2469.49 498.324V569.388M2469.49 498.324H2539.29M2469.49 569.388V640.452M2469.49 569.388H2539.29M2469.49 640.452V711.517M2469.49 640.452H2539.29M2469.49 711.517V782.581M2469.49 711.517H2539.29M2469.49 782.581V853.646M2469.49 782.581H2539.29M2469.49 853.646V924.71M2469.49 853.646H2539.29M2469.49 924.71V995.775M2469.49 924.71H2539.29M2469.49 995.775V1066.84M2469.49 995.775H2539.29M2469.49 1066.84V1137.9M2469.49 1066.84H2539.29M2469.49 1137.9V1208.97M2469.49 1137.9H2539.29M2469.49 1208.97V1280.03M2469.49 1208.97H2539.29M2469.49 1280.03V1351.1M2469.49 1280.03H2539.29M2469.49 1351.1H2539.29M2539.29 0.872513V71.9369M2539.29 0.872513H2609.1M2539.29 71.9369V143.001M2539.29 71.9369H2609.1M2539.29 143.001V214.066M2539.29 143.001H2609.1M2539.29 214.066V285.13M2539.29 214.066H2609.1M2539.29 285.13V356.195M2539.29 285.13H2609.1M2539.29 356.195V427.259M2539.29 356.195H2609.1M2539.29 427.259V498.324M2539.29 427.259H2609.1M2539.29 498.324V569.388M2539.29 498.324H2609.1M2539.29 569.388V640.452M2539.29 569.388H2609.1M2539.29 640.452V711.517M2539.29 640.452H2609.1M2539.29 711.517V782.581M2539.29 711.517H2609.1M2539.29 782.581V853.646M2539.29 782.581H2609.1M2539.29 853.646V924.71M2539.29 853.646H2609.1M2539.29 924.71V995.775M2539.29 924.71H2609.1M2539.29 995.775V1066.84M2539.29 995.775H2609.1M2539.29 1066.84V1137.9M2539.29 1066.84H2609.1M2539.29 1137.9V1208.97M2539.29 1137.9H2609.1M2539.29 1208.97V1280.03M2539.29 1208.97H2609.1M2539.29 1280.03V1351.1M2539.29 1280.03H2609.1M2539.29 1351.1H2609.1M2609.1 0.872513V71.9369M2609.1 0.872513H2678.9M2609.1 71.9369V143.001M2609.1 71.9369H2678.9M2609.1 143.001V214.066M2609.1 143.001H2678.9M2609.1 214.066V285.13M2609.1 214.066H2678.9M2609.1 285.13V356.195M2609.1 285.13H2678.9M2609.1 356.195V427.259M2609.1 356.195H2678.9M2609.1 427.259V498.324M2609.1 427.259H2678.9M2609.1 498.324V569.388M2609.1 498.324H2678.9M2609.1 569.388V640.452M2609.1 569.388H2678.9M2609.1 640.452V711.517M2609.1 640.452H2678.9M2609.1 711.517V782.581M2609.1 711.517H2678.9M2609.1 782.581V853.646M2609.1 782.581H2678.9M2609.1 853.646V924.71M2609.1 853.646H2678.9M2609.1 924.71V995.775M2609.1 924.71H2678.9M2609.1 995.775V1066.84M2609.1 995.775H2678.9M2609.1 1066.84V1137.9M2609.1 1066.84H2678.9M2609.1 1137.9V1208.97M2609.1 1137.9H2678.9M2609.1 1208.97V1280.03M2609.1 1208.97H2678.9M2609.1 1280.03V1351.1M2609.1 1280.03H2678.9M2609.1 1351.1H2678.9M2678.9 0.872513V71.9369M2678.9 0.872513H2748.7M2678.9 71.9369V143.001M2678.9 71.9369H2748.7M2678.9 143.001V214.066M2678.9 143.001H2748.7M2678.9 214.066V285.13M2678.9 214.066H2748.7M2678.9 285.13V356.195M2678.9 285.13H2748.7M2678.9 356.195V427.259M2678.9 356.195H2748.7M2678.9 427.259V498.324M2678.9 427.259H2748.7M2678.9 498.324V569.388M2678.9 498.324H2748.7M2678.9 569.388V640.452M2678.9 569.388H2748.7M2678.9 640.452V711.517M2678.9 640.452H2748.7M2678.9 711.517V782.581M2678.9 711.517H2748.7M2678.9 782.581V853.646M2678.9 782.581H2748.7M2678.9 853.646V924.71M2678.9 853.646H2748.7M2678.9 924.71V995.775M2678.9 924.71H2748.7M2678.9 995.775V1066.84M2678.9 995.775H2748.7M2678.9 1066.84V1137.9M2678.9 1066.84H2748.7M2678.9 1137.9V1208.97M2678.9 1137.9H2748.7M2678.9 1208.97V1280.03M2678.9 1208.97H2748.7M2678.9 1280.03V1351.1M2678.9 1280.03H2748.7M2678.9 1351.1H2748.7M2748.7 0.872513V71.9369M2748.7 0.872513H2818.5M2748.7 71.9369V143.001M2748.7 71.9369H2818.5M2748.7 143.001V214.066M2748.7 143.001H2818.5M2748.7 214.066V285.13M2748.7 214.066H2818.5M2748.7 285.13V356.195M2748.7 285.13H2818.5M2748.7 356.195V427.259M2748.7 356.195H2818.5M2748.7 427.259V498.324M2748.7 427.259H2818.5M2748.7 498.324V569.388M2748.7 498.324H2818.5M2748.7 569.388V640.452M2748.7 569.388H2818.5M2748.7 640.452V711.517M2748.7 640.452H2818.5M2748.7 711.517V782.581M2748.7 711.517H2818.5M2748.7 782.581V853.646M2748.7 782.581H2818.5M2748.7 853.646V924.71M2748.7 853.646H2818.5M2748.7 924.71V995.775M2748.7 924.71H2818.5M2748.7 995.775V1066.84M2748.7 995.775H2818.5M2748.7 1066.84V1137.9M2748.7 1066.84H2818.5M2748.7 1137.9V1208.97M2748.7 1137.9H2818.5M2748.7 1208.97V1280.03M2748.7 1208.97H2818.5M2748.7 1280.03V1351.1M2748.7 1280.03H2818.5M2748.7 1351.1H2818.5M2818.5 0.872513V71.9369M2818.5 0.872513H2888.3M2818.5 71.9369V143.001M2818.5 71.9369H2888.3M2818.5 143.001V214.066M2818.5 143.001H2888.3M2818.5 214.066V285.13M2818.5 214.066H2888.3M2818.5 285.13V356.195M2818.5 285.13H2888.3M2818.5 356.195V427.259M2818.5 356.195H2888.3M2818.5 427.259V498.324M2818.5 427.259H2888.3M2818.5 498.324V569.388M2818.5 498.324H2888.3M2818.5 569.388V640.452M2818.5 569.388H2888.3M2818.5 640.452V711.517M2818.5 640.452H2888.3M2818.5 711.517V782.581M2818.5 711.517H2888.3M2818.5 782.581V853.646M2818.5 782.581H2888.3M2818.5 853.646V924.71M2818.5 853.646H2888.3M2818.5 924.71V995.775M2818.5 924.71H2888.3M2818.5 995.775V1066.84M2818.5 995.775H2888.3M2818.5 1066.84V1137.9M2818.5 1066.84H2888.3M2818.5 1137.9V1208.97M2818.5 1137.9H2888.3M2818.5 1208.97V1280.03M2818.5 1208.97H2888.3M2818.5 1280.03V1351.1M2818.5 1280.03H2888.3M2818.5 1351.1H2888.3M2888.3 0.872513V71.9369M2888.3 0.872513H2958.1M2888.3 71.9369V143.001M2888.3 71.9369H2958.1M2888.3 143.001V214.066M2888.3 143.001H2958.1M2888.3 214.066V285.13M2888.3 214.066H2958.1M2888.3 285.13V356.195M2888.3 285.13H2958.1M2888.3 356.195V427.259M2888.3 356.195H2958.1M2888.3 427.259V498.324M2888.3 427.259H2958.1M2888.3 498.324V569.388M2888.3 498.324H2958.1M2888.3 569.388V640.452M2888.3 569.388H2958.1M2888.3 640.452V711.517M2888.3 640.452H2958.1M2888.3 711.517V782.581M2888.3 711.517H2958.1M2888.3 782.581V853.646M2888.3 782.581H2958.1M2888.3 853.646V924.71M2888.3 853.646H2958.1M2888.3 924.71V995.775M2888.3 924.71H2958.1M2888.3 995.775V1066.84M2888.3 995.775H2958.1M2888.3 1066.84V1137.9M2888.3 1066.84H2958.1M2888.3 1137.9V1208.97M2888.3 1137.9H2958.1M2888.3 1208.97V1280.03M2888.3 1208.97H2958.1M2888.3 1280.03V1351.1M2888.3 1280.03H2958.1M2888.3 1351.1H2958.1M2958.1 0.872513V71.9369M2958.1 0.872513H3027.9M2958.1 71.9369V143.001M2958.1 71.9369H3027.9M2958.1 143.001V214.066M2958.1 143.001H3027.9M2958.1 214.066V285.13M2958.1 214.066H3027.9M2958.1 285.13V356.195M2958.1 285.13H3027.9M2958.1 356.195V427.259M2958.1 356.195H3027.9M2958.1 427.259V498.324M2958.1 427.259H3027.9M2958.1 498.324V569.388M2958.1 498.324H3027.9M2958.1 569.388V640.452M2958.1 569.388H3027.9M2958.1 640.452V711.517M2958.1 640.452H3027.9M2958.1 711.517V782.581M2958.1 711.517H3027.9M2958.1 782.581V853.646M2958.1 782.581H3027.9M2958.1 853.646V924.71M2958.1 853.646H3027.9M2958.1 924.71V995.775M2958.1 924.71H3027.9M2958.1 995.775V1066.84M2958.1 995.775H3027.9M2958.1 1066.84V1137.9M2958.1 1066.84H3027.9M2958.1 1137.9V1208.97M2958.1 1137.9H3027.9M2958.1 1208.97V1280.03M2958.1 1208.97H3027.9M2958.1 1280.03V1351.1M2958.1 1280.03H3027.9M2958.1 1351.1H3027.9M3027.9 0.872513V71.9369M3027.9 0.872513H3097.7M3027.9 71.9369V143.001M3027.9 71.9369H3097.7M3027.9 143.001V214.066M3027.9 143.001H3097.7M3027.9 214.066V285.13M3027.9 214.066H3097.7M3027.9 285.13V356.195M3027.9 285.13H3097.7M3027.9 356.195V427.259M3027.9 356.195H3097.7M3027.9 427.259V498.324M3027.9 427.259H3097.7M3027.9 498.324V569.388M3027.9 498.324H3097.7M3027.9 569.388V640.452M3027.9 569.388H3097.7M3027.9 640.452V711.517M3027.9 640.452H3097.7M3027.9 711.517V782.581M3027.9 711.517H3097.7M3027.9 782.581V853.646M3027.9 782.581H3097.7M3027.9 853.646V924.71M3027.9 853.646H3097.7M3027.9 924.71V995.775M3027.9 924.71H3097.7M3027.9 995.775V1066.84M3027.9 995.775H3097.7M3027.9 1066.84V1137.9M3027.9 1066.84H3097.7M3027.9 1137.9V1208.97M3027.9 1137.9H3097.7M3027.9 1208.97V1280.03M3027.9 1208.97H3097.7M3027.9 1280.03V1351.1M3027.9 1280.03H3097.7M3027.9 1351.1H3097.7M3097.7 0.872513V71.9369M3097.7 0.872513H3167.5M3097.7 71.9369V143.001M3097.7 71.9369H3167.5M3097.7 143.001V214.066M3097.7 143.001H3167.5M3097.7 214.066V285.13M3097.7 214.066H3167.5M3097.7 285.13V356.195M3097.7 285.13H3167.5M3097.7 356.195V427.259M3097.7 356.195H3167.5M3097.7 427.259V498.324M3097.7 427.259H3167.5M3097.7 498.324V569.388M3097.7 498.324H3167.5M3097.7 569.388V640.452M3097.7 569.388H3167.5M3097.7 640.452V711.517M3097.7 640.452H3167.5M3097.7 711.517V782.581M3097.7 711.517H3167.5M3097.7 782.581V853.646M3097.7 782.581H3167.5M3097.7 853.646V924.71M3097.7 853.646H3167.5M3097.7 924.71V995.775M3097.7 924.71H3167.5M3097.7 995.775V1066.84M3097.7 995.775H3167.5M3097.7 1066.84V1137.9M3097.7 1066.84H3167.5M3097.7 1137.9V1208.97M3097.7 1137.9H3167.5M3097.7 1208.97V1280.03M3097.7 1208.97H3167.5M3097.7 1280.03V1351.1M3097.7 1280.03H3167.5M3097.7 1351.1H3167.5M3167.5 0.872513V71.9369M3167.5 0.872513H3237.3M3167.5 71.9369V143.001M3167.5 71.9369H3237.3M3167.5 143.001V214.066M3167.5 143.001H3237.3M3167.5 214.066V285.13M3167.5 214.066H3237.3M3167.5 285.13V356.195M3167.5 285.13H3237.3M3167.5 356.195V427.259M3167.5 356.195H3237.3M3167.5 427.259V498.324M3167.5 427.259H3237.3M3167.5 498.324V569.388M3167.5 498.324H3237.3M3167.5 569.388V640.452M3167.5 569.388H3237.3M3167.5 640.452V711.517M3167.5 640.452H3237.3M3167.5 711.517V782.581M3167.5 711.517H3237.3M3167.5 782.581V853.646M3167.5 782.581H3237.3M3167.5 853.646V924.71M3167.5 853.646H3237.3M3167.5 924.71V995.775M3167.5 924.71H3237.3M3167.5 995.775V1066.84M3167.5 995.775H3237.3M3167.5 1066.84V1137.9M3167.5 1066.84H3237.3M3167.5 1137.9V1208.97M3167.5 1137.9H3237.3M3167.5 1208.97V1280.03M3167.5 1208.97H3237.3M3167.5 1280.03V1351.1M3167.5 1280.03H3237.3M3167.5 1351.1H3237.3M3237.3 0.872513V71.9369M3237.3 0.872513H3307.11M3237.3 71.9369V143.001M3237.3 71.9369H3307.11M3237.3 143.001V214.066M3237.3 143.001H3307.11M3237.3 214.066V285.13M3237.3 214.066H3307.11M3237.3 285.13V356.195M3237.3 285.13H3307.11M3237.3 356.195V427.259M3237.3 356.195H3307.11M3237.3 427.259V498.324M3237.3 427.259H3307.11M3237.3 498.324V569.388M3237.3 498.324H3307.11M3237.3 569.388V640.452M3237.3 569.388H3307.11M3237.3 640.452V711.517M3237.3 640.452H3307.11M3237.3 711.517V782.581M3237.3 711.517H3307.11M3237.3 782.581V853.646M3237.3 782.581H3307.11M3237.3 853.646V924.71M3237.3 853.646H3307.11M3237.3 924.71V995.775M3237.3 924.71H3307.11M3237.3 995.775V1066.84M3237.3 995.775H3307.11M3237.3 1066.84V1137.9M3237.3 1066.84H3307.11M3237.3 1137.9V1208.97M3237.3 1137.9H3307.11M3237.3 1208.97V1280.03M3237.3 1208.97H3307.11M3237.3 1280.03V1351.1M3237.3 1280.03H3307.11M3237.3 1351.1H3307.11M3307.11 0.872513V71.9369M3307.11 0.872513H3376.91M3307.11 71.9369V143.001M3307.11 71.9369H3376.91M3307.11 143.001V214.066M3307.11 143.001H3376.91M3307.11 214.066V285.13M3307.11 214.066H3376.91M3307.11 285.13V356.195M3307.11 285.13H3376.91M3307.11 356.195V427.259M3307.11 356.195H3376.91M3307.11 427.259V498.324M3307.11 427.259H3376.91M3307.11 498.324V569.388M3307.11 498.324H3376.91M3307.11 569.388V640.452M3307.11 569.388H3376.91M3307.11 640.452V711.517M3307.11 640.452H3376.91M3307.11 711.517V782.581M3307.11 711.517H3376.91M3307.11 782.581V853.646M3307.11 782.581H3376.91M3307.11 853.646V924.71M3307.11 853.646H3376.91M3307.11 924.71V995.775M3307.11 924.71H3376.91M3307.11 995.775V1066.84M3307.11 995.775H3376.91M3307.11 1066.84V1137.9M3307.11 1066.84H3376.91M3307.11 1137.9V1208.97M3307.11 1137.9H3376.91M3307.11 1208.97V1280.03M3307.11 1208.97H3376.91M3307.11 1280.03V1351.1M3307.11 1280.03H3376.91M3307.11 1351.1H3376.91M3376.91 0.872513V71.9369M3376.91 0.872513H3446.71M3376.91 71.9369V143.001M3376.91 71.9369H3446.71M3376.91 143.001V214.066M3376.91 143.001H3446.71M3376.91 214.066V285.13M3376.91 214.066H3446.71M3376.91 285.13V356.195M3376.91 285.13H3446.71M3376.91 356.195V427.259M3376.91 356.195H3446.71M3376.91 427.259V498.324M3376.91 427.259H3446.71M3376.91 498.324V569.388M3376.91 498.324H3446.71M3376.91 569.388V640.452M3376.91 569.388H3446.71M3376.91 640.452V711.517M3376.91 640.452H3446.71M3376.91 711.517V782.581M3376.91 711.517H3446.71M3376.91 782.581V853.646M3376.91 782.581H3446.71M3376.91 853.646V924.71M3376.91 853.646H3446.71M3376.91 924.71V995.775M3376.91 924.71H3446.71M3376.91 995.775V1066.84M3376.91 995.775H3446.71M3376.91 1066.84V1137.9M3376.91 1066.84H3446.71M3376.91 1137.9V1208.97M3376.91 1137.9H3446.71M3376.91 1208.97V1280.03M3376.91 1208.97H3446.71M3376.91 1280.03V1351.1M3376.91 1280.03H3446.71M3376.91 1351.1H3446.71M3446.71 0.872513V71.9369M3446.71 0.872513H3516.51M3446.71 71.9369V143.001M3446.71 71.9369H3516.51M3446.71 143.001V214.066M3446.71 143.001H3516.51M3446.71 214.066V285.13M3446.71 214.066H3516.51M3446.71 285.13V356.195M3446.71 285.13H3516.51M3446.71 356.195V427.259M3446.71 356.195H3516.51M3446.71 427.259V498.324M3446.71 427.259H3516.51M3446.71 498.324V569.388M3446.71 498.324H3516.51M3446.71 569.388V640.452M3446.71 569.388H3516.51M3446.71 640.452V711.517M3446.71 640.452H3516.51M3446.71 711.517V782.581M3446.71 711.517H3516.51M3446.71 782.581V853.646M3446.71 782.581H3516.51M3446.71 853.646V924.71M3446.71 853.646H3516.51M3446.71 924.71V995.775M3446.71 924.71H3516.51M3446.71 995.775V1066.84M3446.71 995.775H3516.51M3446.71 1066.84V1137.9M3446.71 1066.84H3516.51M3446.71 1137.9V1208.97M3446.71 1137.9H3516.51M3446.71 1208.97V1280.03M3446.71 1208.97H3516.51M3446.71 1280.03V1351.1M3446.71 1280.03H3516.51M3446.71 1351.1H3516.51M3516.51 0.872513V71.9369M3516.51 0.872513H3586.31M3516.51 71.9369V143.001M3516.51 71.9369H3586.31M3516.51 143.001V214.066M3516.51 143.001H3586.31M3516.51 214.066V285.13M3516.51 214.066H3586.31M3516.51 285.13V356.195M3516.51 285.13H3586.31M3516.51 356.195V427.259M3516.51 356.195H3586.31M3516.51 427.259V498.324M3516.51 427.259H3586.31M3516.51 498.324V569.388M3516.51 498.324H3586.31M3516.51 569.388V640.452M3516.51 569.388H3586.31M3516.51 640.452V711.517M3516.51 640.452H3586.31M3516.51 711.517V782.581M3516.51 711.517H3586.31M3516.51 782.581V853.646M3516.51 782.581H3586.31M3516.51 853.646V924.71M3516.51 853.646H3586.31M3516.51 924.71V995.775M3516.51 924.71H3586.31M3516.51 995.775V1066.84M3516.51 995.775H3586.31M3516.51 1066.84V1137.9M3516.51 1066.84H3586.31M3516.51 1137.9V1208.97M3516.51 1137.9H3586.31M3516.51 1208.97V1280.03M3516.51 1208.97H3586.31M3516.51 1280.03V1351.1M3516.51 1280.03H3586.31M3516.51 1351.1H3586.31M3586.31 0.872513V71.9369M3586.31 0.872513H3656.11M3586.31 71.9369V143.001M3586.31 71.9369H3656.11M3586.31 143.001V214.066M3586.31 143.001H3656.11M3586.31 214.066V285.13M3586.31 214.066H3656.11M3586.31 285.13V356.195M3586.31 285.13H3656.11M3586.31 356.195V427.259M3586.31 356.195H3656.11M3586.31 427.259V498.324M3586.31 427.259H3656.11M3586.31 498.324V569.388M3586.31 498.324H3656.11M3586.31 569.388V640.452M3586.31 569.388H3656.11M3586.31 640.452V711.517M3586.31 640.452H3656.11M3586.31 711.517V782.581M3586.31 711.517H3656.11M3586.31 782.581V853.646M3586.31 782.581H3656.11M3586.31 853.646V924.71M3586.31 853.646H3656.11M3586.31 924.71V995.775M3586.31 924.71H3656.11M3586.31 995.775V1066.84M3586.31 995.775H3656.11M3586.31 1066.84V1137.9M3586.31 1066.84H3656.11M3586.31 1137.9V1208.97M3586.31 1137.9H3656.11M3586.31 1208.97V1280.03M3586.31 1208.97H3656.11M3586.31 1280.03V1351.1M3586.31 1280.03H3656.11M3586.31 1351.1H3656.11M3656.11 0.872513V71.9369M3656.11 0.872513H3725.91M3656.11 71.9369V143.001M3656.11 71.9369H3725.91M3656.11 143.001V214.066M3656.11 143.001H3725.91M3656.11 214.066V285.13M3656.11 214.066H3725.91M3656.11 285.13V356.195M3656.11 285.13H3725.91M3656.11 356.195V427.259M3656.11 356.195H3725.91M3656.11 427.259V498.324M3656.11 427.259H3725.91M3656.11 498.324V569.388M3656.11 498.324H3725.91M3656.11 569.388V640.452M3656.11 569.388H3725.91M3656.11 640.452V711.517M3656.11 640.452H3725.91M3656.11 711.517V782.581M3656.11 711.517H3725.91M3656.11 782.581V853.646M3656.11 782.581H3725.91M3656.11 853.646V924.71M3656.11 853.646H3725.91M3656.11 924.71V995.775M3656.11 924.71H3725.91M3656.11 995.775V1066.84M3656.11 995.775H3725.91M3656.11 1066.84V1137.9M3656.11 1066.84H3725.91M3656.11 1137.9V1208.97M3656.11 1137.9H3725.91M3656.11 1208.97V1280.03M3656.11 1208.97H3725.91M3656.11 1280.03V1351.1M3656.11 1280.03H3725.91M3656.11 1351.1H3725.91M3725.91 0.872513V71.9369M3725.91 0.872513H3795.71M3725.91 71.9369V143.001M3725.91 71.9369H3795.71M3725.91 143.001V214.066M3725.91 143.001H3795.71M3725.91 214.066V285.13M3725.91 214.066H3795.71M3725.91 285.13V356.195M3725.91 285.13H3795.71M3725.91 356.195V427.259M3725.91 356.195H3795.71M3725.91 427.259V498.324M3725.91 427.259H3795.71M3725.91 498.324V569.388M3725.91 498.324H3795.71M3725.91 569.388V640.452M3725.91 569.388H3795.71M3725.91 640.452V711.517M3725.91 640.452H3795.71M3725.91 711.517V782.581M3725.91 711.517H3795.71M3725.91 782.581V853.646M3725.91 782.581H3795.71M3725.91 853.646V924.71M3725.91 853.646H3795.71M3725.91 924.71V995.775M3725.91 924.71H3795.71M3725.91 995.775V1066.84M3725.91 995.775H3795.71M3725.91 1066.84V1137.9M3725.91 1066.84H3795.71M3725.91 1137.9V1208.97M3725.91 1137.9H3795.71M3725.91 1208.97V1280.03M3725.91 1208.97H3795.71M3725.91 1280.03V1351.1M3725.91 1280.03H3795.71M3725.91 1351.1H3795.71M3795.71 0.872513V71.9369M3795.71 0.872513H3865.51M3795.71 71.9369V143.001M3795.71 71.9369H3865.51M3795.71 143.001V214.066M3795.71 143.001H3865.51M3795.71 214.066V285.13M3795.71 214.066H3865.51M3795.71 285.13V356.195M3795.71 285.13H3865.51M3795.71 356.195V427.259M3795.71 356.195H3865.51M3795.71 427.259V498.324M3795.71 427.259H3865.51M3795.71 498.324V569.388M3795.71 498.324H3865.51M3795.71 569.388V640.452M3795.71 569.388H3865.51M3795.71 640.452V711.517M3795.71 640.452H3865.51M3795.71 711.517V782.581M3795.71 711.517H3865.51M3795.71 782.581V853.646M3795.71 782.581H3865.51M3795.71 853.646V924.71M3795.71 853.646H3865.51M3795.71 924.71V995.775M3795.71 924.71H3865.51M3795.71 995.775V1066.84M3795.71 995.775H3865.51M3795.71 1066.84V1137.9M3795.71 1066.84H3865.51M3795.71 1137.9V1208.97M3795.71 1137.9H3865.51M3795.71 1208.97V1280.03M3795.71 1208.97H3865.51M3795.71 1280.03V1351.1M3795.71 1280.03H3865.51M3795.71 1351.1H3865.51M3865.51 0.872513V71.9369M3865.51 0.872513H3935.32M3865.51 71.9369V143.001M3865.51 71.9369H3935.32M3865.51 143.001V214.066M3865.51 143.001H3935.32M3865.51 214.066V285.13M3865.51 214.066H3935.32M3865.51 285.13V356.195M3865.51 285.13H3935.32M3865.51 356.195V427.259M3865.51 356.195H3935.32M3865.51 427.259V498.324M3865.51 427.259H3935.32M3865.51 498.324V569.388M3865.51 498.324H3935.32M3865.51 569.388V640.452M3865.51 569.388H3935.32M3865.51 640.452V711.517M3865.51 640.452H3935.32M3865.51 711.517V782.581M3865.51 711.517H3935.32M3865.51 782.581V853.646M3865.51 782.581H3935.32M3865.51 853.646V924.71M3865.51 853.646H3935.32M3865.51 924.71V995.775M3865.51 924.71H3935.32M3865.51 995.775V1066.84M3865.51 995.775H3935.32M3865.51 1066.84V1137.9M3865.51 1066.84H3935.32M3865.51 1137.9V1208.97M3865.51 1137.9H3935.32M3865.51 1208.97V1280.03M3865.51 1208.97H3935.32M3865.51 1280.03V1351.1M3865.51 1280.03H3935.32M3865.51 1351.1H3935.32M3935.32 0.872513V71.9369M3935.32 0.872513H4005.12M3935.32 71.9369V143.001M3935.32 71.9369H4005.12M3935.32 143.001V214.066M3935.32 143.001H4005.12M3935.32 214.066V285.13M3935.32 214.066H4005.12M3935.32 285.13V356.195M3935.32 285.13H4005.12M3935.32 356.195V427.259M3935.32 356.195H4005.12M3935.32 427.259V498.324M3935.32 427.259H4005.12M3935.32 498.324V569.388M3935.32 498.324H4005.12M3935.32 569.388V640.452M3935.32 569.388H4005.12M3935.32 640.452V711.517M3935.32 640.452H4005.12M3935.32 711.517V782.581M3935.32 711.517H4005.12M3935.32 782.581V853.646M3935.32 782.581H4005.12M3935.32 853.646V924.71M3935.32 853.646H4005.12M3935.32 924.71V995.775M3935.32 924.71H4005.12M3935.32 995.775V1066.84M3935.32 995.775H4005.12M3935.32 1066.84V1137.9M3935.32 1066.84H4005.12M3935.32 1137.9V1208.97M3935.32 1137.9H4005.12M3935.32 1208.97V1280.03M3935.32 1208.97H4005.12M3935.32 1280.03V1351.1M3935.32 1280.03H4005.12M3935.32 1351.1H4005.12M4005.12 0.872513V71.9369M4005.12 0.872513H4074.92M4005.12 71.9369V143.001M4005.12 71.9369H4074.92M4005.12 143.001V214.066M4005.12 143.001H4074.92M4005.12 214.066V285.13M4005.12 214.066H4074.92M4005.12 285.13V356.195M4005.12 285.13H4074.92M4005.12 356.195V427.259M4005.12 356.195H4074.92M4005.12 427.259V498.324M4005.12 427.259H4074.92M4005.12 498.324V569.388M4005.12 498.324H4074.92M4005.12 569.388V640.452M4005.12 569.388H4074.92M4005.12 640.452V711.517M4005.12 640.452H4074.92M4005.12 711.517V782.581M4005.12 711.517H4074.92M4005.12 782.581V853.646M4005.12 782.581H4074.92M4005.12 853.646V924.71M4005.12 853.646H4074.92M4005.12 924.71V995.775M4005.12 924.71H4074.92M4005.12 995.775V1066.84M4005.12 995.775H4074.92M4005.12 1066.84V1137.9M4005.12 1066.84H4074.92M4005.12 1137.9V1208.97M4005.12 1137.9H4074.92M4005.12 1208.97V1280.03M4005.12 1208.97H4074.92M4005.12 1280.03V1351.1M4005.12 1280.03H4074.92M4005.12 1351.1H4074.92M4074.92 0.872513V71.9369M4074.92 0.872513H4144.72M4074.92 71.9369V143.001M4074.92 71.9369H4144.72M4074.92 143.001V214.066M4074.92 143.001H4144.72M4074.92 214.066V285.13M4074.92 214.066H4144.72M4074.92 285.13V356.195M4074.92 285.13H4144.72M4074.92 356.195V427.259M4074.92 356.195H4144.72M4074.92 427.259V498.324M4074.92 427.259H4144.72M4074.92 498.324V569.388M4074.92 498.324H4144.72M4074.92 569.388V640.452M4074.92 569.388H4144.72M4074.92 640.452V711.517M4074.92 640.452H4144.72M4074.92 711.517V782.581M4074.92 711.517H4144.72M4074.92 782.581V853.646M4074.92 782.581H4144.72M4074.92 853.646V924.71M4074.92 853.646H4144.72M4074.92 924.71V995.775M4074.92 924.71H4144.72M4074.92 995.775V1066.84M4074.92 995.775H4144.72M4074.92 1066.84V1137.9M4074.92 1066.84H4144.72M4074.92 1137.9V1208.97M4074.92 1137.9H4144.72M4074.92 1208.97V1280.03M4074.92 1208.97H4144.72M4074.92 1280.03V1351.1M4074.92 1280.03H4144.72M4074.92 1351.1H4144.72M4144.72 0.872513V71.9369M4144.72 0.872513H4214.52M4144.72 71.9369V143.001M4144.72 71.9369H4214.52M4144.72 143.001V214.066M4144.72 143.001H4214.52M4144.72 214.066V285.13M4144.72 214.066H4214.52M4144.72 285.13V356.195M4144.72 285.13H4214.52M4144.72 356.195V427.259M4144.72 356.195H4214.52M4144.72 427.259V498.324M4144.72 427.259H4214.52M4144.72 498.324V569.388M4144.72 498.324H4214.52M4144.72 569.388V640.452M4144.72 569.388H4214.52M4144.72 640.452V711.517M4144.72 640.452H4214.52M4144.72 711.517V782.581M4144.72 711.517H4214.52M4144.72 782.581V853.646M4144.72 782.581H4214.52M4144.72 853.646V924.71M4144.72 853.646H4214.52M4144.72 924.71V995.775M4144.72 924.71H4214.52M4144.72 995.775V1066.84M4144.72 995.775H4214.52M4144.72 1066.84V1137.9M4144.72 1066.84H4214.52M4144.72 1137.9V1208.97M4144.72 1137.9H4214.52M4144.72 1208.97V1280.03M4144.72 1208.97H4214.52M4144.72 1280.03V1351.1M4144.72 1280.03H4214.52M4144.72 1351.1H4214.52M4214.52 0.872513V71.9369M4214.52 0.872513H4284.32M4214.52 71.9369V143.001M4214.52 71.9369H4284.32M4214.52 143.001V214.066M4214.52 143.001H4284.32M4214.52 214.066V285.13M4214.52 214.066H4284.32M4214.52 285.13V356.195M4214.52 285.13H4284.32M4214.52 356.195V427.259M4214.52 356.195H4284.32M4214.52 427.259V498.324M4214.52 427.259H4284.32M4214.52 498.324V569.388M4214.52 498.324H4284.32M4214.52 569.388V640.452M4214.52 569.388H4284.32M4214.52 640.452V711.517M4214.52 640.452H4284.32M4214.52 711.517V782.581M4214.52 711.517H4284.32M4214.52 782.581V853.646M4214.52 782.581H4284.32M4214.52 853.646V924.71M4214.52 853.646H4284.32M4214.52 924.71V995.775M4214.52 924.71H4284.32M4214.52 995.775V1066.84M4214.52 995.775H4284.32M4214.52 1066.84V1137.9M4214.52 1066.84H4284.32M4214.52 1137.9V1208.97M4214.52 1137.9H4284.32M4214.52 1208.97V1280.03M4214.52 1208.97H4284.32M4214.52 1280.03V1351.1M4214.52 1280.03H4284.32M4214.52 1351.1H4284.32M4284.32 0.872513V71.9369M4284.32 0.872513H4354.12M4284.32 71.9369V143.001M4284.32 71.9369H4354.12M4284.32 143.001V214.066M4284.32 143.001H4354.12M4284.32 214.066V285.13M4284.32 214.066H4354.12M4284.32 285.13V356.195M4284.32 285.13H4354.12M4284.32 356.195V427.259M4284.32 356.195H4354.12M4284.32 427.259V498.324M4284.32 427.259H4354.12M4284.32 498.324V569.388M4284.32 498.324H4354.12M4284.32 569.388V640.452M4284.32 569.388H4354.12M4284.32 640.452V711.517M4284.32 640.452H4354.12M4284.32 711.517V782.581M4284.32 711.517H4354.12M4284.32 782.581V853.646M4284.32 782.581H4354.12M4284.32 853.646V924.71M4284.32 853.646H4354.12M4284.32 924.71V995.775M4284.32 924.71H4354.12M4284.32 995.775V1066.84M4284.32 995.775H4354.12M4284.32 1066.84V1137.9M4284.32 1066.84H4354.12M4284.32 1137.9V1208.97M4284.32 1137.9H4354.12M4284.32 1208.97V1280.03M4284.32 1208.97H4354.12M4284.32 1280.03V1351.1M4284.32 1280.03H4354.12M4284.32 1351.1H4354.12M4354.12 0.872513V71.9369M4354.12 0.872513H4423.92M4354.12 71.9369V143.001M4354.12 71.9369H4423.92M4354.12 143.001V214.066M4354.12 143.001H4423.92M4354.12 214.066V285.13M4354.12 214.066H4423.92M4354.12 285.13V356.195M4354.12 285.13H4423.92M4354.12 356.195V427.259M4354.12 356.195H4423.92M4354.12 427.259V498.324M4354.12 427.259H4423.92M4354.12 498.324V569.388M4354.12 498.324H4423.92M4354.12 569.388V640.452M4354.12 569.388H4423.92M4354.12 640.452V711.517M4354.12 640.452H4423.92M4354.12 711.517V782.581M4354.12 711.517H4423.92M4354.12 782.581V853.646M4354.12 782.581H4423.92M4354.12 853.646V924.71M4354.12 853.646H4423.92M4354.12 924.71V995.775M4354.12 924.71H4423.92M4354.12 995.775V1066.84M4354.12 995.775H4423.92M4354.12 1066.84V1137.9M4354.12 1066.84H4423.92M4354.12 1137.9V1208.97M4354.12 1137.9H4423.92M4354.12 1208.97V1280.03M4354.12 1208.97H4423.92M4354.12 1280.03V1351.1M4354.12 1280.03H4423.92M4354.12 1351.1H4423.92M4423.92 0.872513V71.9369M4423.92 0.872513H4493.72M4423.92 71.9369V143.001M4423.92 71.9369H4493.72M4423.92 143.001V214.066M4423.92 143.001H4493.72M4423.92 214.066V285.13M4423.92 214.066H4493.72M4423.92 285.13V356.195M4423.92 285.13H4493.72M4423.92 356.195V427.259M4423.92 356.195H4493.72M4423.92 427.259V498.324M4423.92 427.259H4493.72M4423.92 498.324V569.388M4423.92 498.324H4493.72M4423.92 569.388V640.452M4423.92 569.388H4493.72M4423.92 640.452V711.517M4423.92 640.452H4493.72M4423.92 711.517V782.581M4423.92 711.517H4493.72M4423.92 782.581V853.646M4423.92 782.581H4493.72M4423.92 853.646V924.71M4423.92 853.646H4493.72M4423.92 924.71V995.775M4423.92 924.71H4493.72M4423.92 995.775V1066.84M4423.92 995.775H4493.72M4423.92 1066.84V1137.9M4423.92 1066.84H4493.72M4423.92 1137.9V1208.97M4423.92 1137.9H4493.72M4423.92 1208.97V1280.03M4423.92 1208.97H4493.72M4423.92 1280.03V1351.1M4423.92 1280.03H4493.72M4423.92 1351.1H4493.72M4493.72 0.872513V71.9369M4493.72 0.872513H4563.53M4493.72 71.9369V143.001M4493.72 71.9369H4563.53M4493.72 143.001V214.066M4493.72 143.001H4563.53M4493.72 214.066V285.13M4493.72 214.066H4563.53M4493.72 285.13V356.195M4493.72 285.13H4563.53M4493.72 356.195V427.259M4493.72 356.195H4563.53M4493.72 427.259V498.324M4493.72 427.259H4563.53M4493.72 498.324V569.388M4493.72 498.324H4563.53M4493.72 569.388V640.452M4493.72 569.388H4563.53M4493.72 640.452V711.517M4493.72 640.452H4563.53M4493.72 711.517V782.581M4493.72 711.517H4563.53M4493.72 782.581V853.646M4493.72 782.581H4563.53M4493.72 853.646V924.71M4493.72 853.646H4563.53M4493.72 924.71V995.775M4493.72 924.71H4563.53M4493.72 995.775V1066.84M4493.72 995.775H4563.53M4493.72 1066.84V1137.9M4493.72 1066.84H4563.53M4493.72 1137.9V1208.97M4493.72 1137.9H4563.53M4493.72 1208.97V1280.03M4493.72 1208.97H4563.53M4493.72 1280.03V1351.1M4493.72 1280.03H4563.53M4493.72 1351.1H4563.53M4563.53 0.872513V71.9369M4563.53 0.872513H4633.33M4563.53 71.9369V143.001M4563.53 71.9369H4633.33M4563.53 143.001V214.066M4563.53 143.001H4633.33M4563.53 214.066V285.13M4563.53 214.066H4633.33M4563.53 285.13V356.195M4563.53 285.13H4633.33M4563.53 356.195V427.259M4563.53 356.195H4633.33M4563.53 427.259V498.324M4563.53 427.259H4633.33M4563.53 498.324V569.388M4563.53 498.324H4633.33M4563.53 569.388V640.452M4563.53 569.388H4633.33M4563.53 640.452V711.517M4563.53 640.452H4633.33M4563.53 711.517V782.581M4563.53 711.517H4633.33M4563.53 782.581V853.646M4563.53 782.581H4633.33M4563.53 853.646V924.71M4563.53 853.646H4633.33M4563.53 924.71V995.775M4563.53 924.71H4633.33M4563.53 995.775V1066.84M4563.53 995.775H4633.33M4563.53 1066.84V1137.9M4563.53 1066.84H4633.33M4563.53 1137.9V1208.97M4563.53 1137.9H4633.33M4563.53 1208.97V1280.03M4563.53 1208.97H4633.33M4563.53 1280.03V1351.1M4563.53 1280.03H4633.33M4563.53 1351.1H4633.33M4633.33 0.872513V71.9369M4633.33 0.872513H4703.13V71.9369M4633.33 71.9369V143.001M4633.33 71.9369H4703.13M4633.33 143.001V214.066M4633.33 143.001H4703.13M4633.33 214.066V285.13M4633.33 214.066H4703.13M4633.33 285.13V356.195M4633.33 285.13H4703.13M4633.33 356.195V427.259M4633.33 356.195H4703.13M4633.33 427.259V498.324M4633.33 427.259H4703.13M4633.33 498.324V569.388M4633.33 498.324H4703.13M4633.33 569.388V640.452M4633.33 569.388H4703.13M4633.33 640.452V711.517M4633.33 640.452H4703.13M4633.33 711.517V782.581M4633.33 711.517H4703.13M4633.33 782.581V853.646M4633.33 782.581H4703.13M4633.33 853.646V924.71M4633.33 853.646H4703.13M4633.33 924.71V995.775M4633.33 924.71H4703.13M4633.33 995.775V1066.84M4633.33 995.775H4703.13M4633.33 1066.84V1137.9M4633.33 1066.84H4703.13M4633.33 1137.9V1208.97M4633.33 1137.9H4703.13M4633.33 1208.97V1280.03M4633.33 1208.97H4703.13M4633.33 1280.03V1351.1M4633.33 1280.03H4703.13M4633.33 1351.1H4703.13V1280.03M4703.13 71.9369V143.001M4703.13 143.001V214.066M4703.13 214.066V285.13M4703.13 285.13V356.195M4703.13 356.195V427.259M4703.13 427.259V498.324M4703.13 498.324V569.388M4703.13 569.388V640.452M4703.13 640.452V711.517M4703.13 711.517V782.581M4703.13 782.581V853.646M4703.13 853.646V924.71M4703.13 924.71V995.775M4703.13 995.775V1066.84M4703.13 1066.84V1137.9M4703.13 1137.9V1208.97M4703.13 1208.97V1280.03" stroke="url(#paint0_radial_60_3232)" stroke-width="1.74474"/>
<defs>
<radialGradient id="paint0_radial_60_3232" cx="0" cy="0" r="1" gradientUnits="userSpaceOnUse" gradientTransform="translate(1631.88 1351.1) rotate(-51.232) scale(865.875 1590.44)">
<stop stop-color="white"/>
<stop offset="1" stop-color="white" stop-opacity="0"/>
</radialGradient>
</defs>
</g>
</svg>