<svg width="4000" height="1500" viewBox="0 0 4000 1500" fill="none" xmlns="http://www.w3.org/2000/svg">
<g style="mix-blend-mode:overlay">
<path d="M3002.32 1441.11L3072.12 1441.11L3072.12 1370.05M3002.32 1441.11L3002.32 1370.05M3002.32 1441.11L2932.52 1441.11M3002.32 1370.05L3072.12 1370.05M3002.32 1370.05L3002.32 1298.98M3002.32 1370.05L2932.52 1370.05M3072.12 1370.05L3072.12 1298.98M3002.32 1298.98L3072.12 1298.98M3002.32 1298.98L3002.32 1227.92M3002.32 1298.98L2932.52 1298.98M3072.12 1298.98L3072.12 1227.92M3002.32 1227.92L3072.12 1227.92M3002.32 1227.92L3002.32 1156.85M3002.32 1227.92L2932.52 1227.92M3072.12 1227.92L3072.12 1156.85M3002.32 1156.85L3072.12 1156.85M3002.32 1156.85L3002.32 1085.79M3002.32 1156.85L2932.52 1156.85M3072.12 1156.85L3072.12 1085.79M3002.32 1085.79L3072.12 1085.79M3002.32 1085.79L3002.32 1014.73M3002.32 1085.79L2932.52 1085.79M3072.12 1085.79L3072.12 1014.73M3002.32 1014.73L3072.12 1014.73M3002.32 1014.73L3002.32 943.661M3002.32 1014.73L2932.52 1014.73M3072.12 1014.73L3072.12 943.661M3002.32 943.661L3072.12 943.661M3002.32 943.661L3002.32 872.596M3002.32 943.661L2932.52 943.661M3072.12 943.661L3072.12 872.596M3002.32 872.596L3072.12 872.596M3002.32 872.596L3002.32 801.532M3002.32 872.596L2932.52 872.596M3072.12 872.596L3072.12 801.532M3002.32 801.532L3072.12 801.532M3002.32 801.532L3002.32 730.467M3002.32 801.532L2932.52 801.532M3072.12 801.532L3072.12 730.467M3002.32 730.467L3072.12 730.467M3002.32 730.467L3002.32 659.403M3002.32 730.467L2932.52 730.467M3072.12 730.467L3072.12 659.403M3002.32 659.403L3072.12 659.403M3002.32 659.403L3002.32 588.339M3002.32 659.403L2932.52 659.403M3072.12 659.403L3072.12 588.339M3002.32 588.339L3072.12 588.339M3002.32 588.339L3002.32 517.274M3002.32 588.339L2932.52 588.339M3072.12 588.339L3072.12 517.274M3002.32 517.274L3072.12 517.274M3002.32 517.274L3002.32 446.21M3002.32 517.274L2932.52 517.274M3072.12 517.274L3072.12 446.21M3002.32 446.21L3072.12 446.21M3002.32 446.21L3002.32 375.145M3002.32 446.21L2932.52 446.21M3072.12 446.21L3072.12 375.145M3002.32 375.145L3072.12 375.145M3002.32 375.145L3002.32 304.081M3002.32 375.145L2932.52 375.145M3072.12 375.145L3072.12 304.081M3002.32 304.081L3072.12 304.081M3002.32 304.081L3002.32 233.016M3002.32 304.081L2932.52 304.081M3072.12 304.081L3072.12 233.016M3002.32 233.016L3072.12 233.016M3002.32 233.016L3002.32 161.952M3002.32 233.016L2932.52 233.016M3072.12 233.016L3072.12 161.952M3002.32 161.952L3072.12 161.952M3002.32 161.952L3002.32 90.8876M3002.32 161.952L2932.52 161.952M3072.12 161.952L3072.12 90.8876L3002.32 90.8876M3002.32 90.8876L2932.52 90.8876M2932.52 1441.11L2932.52 1370.05M2932.52 1441.11L2862.72 1441.11M2932.52 1370.05L2932.52 1298.98M2932.52 1370.05L2862.72 1370.05M2932.52 1298.98L2932.52 1227.92M2932.52 1298.98L2862.72 1298.98M2932.52 1227.92L2932.52 1156.85M2932.52 1227.92L2862.72 1227.92M2932.52 1156.85L2932.52 1085.79M2932.52 1156.85L2862.72 1156.85M2932.52 1085.79L2932.52 1014.73M2932.52 1085.79L2862.72 1085.79M2932.52 1014.73L2932.52 943.661M2932.52 1014.73L2862.72 1014.73M2932.52 943.661L2932.52 872.596M2932.52 943.661L2862.72 943.661M2932.52 872.596L2932.52 801.532M2932.52 872.596L2862.72 872.596M2932.52 801.532L2932.52 730.467M2932.52 801.532L2862.72 801.532M2932.52 730.467L2932.52 659.403M2932.52 730.467L2862.72 730.467M2932.52 659.403L2932.52 588.339M2932.52 659.403L2862.72 659.403M2932.52 588.339L2932.52 517.274M2932.52 588.339L2862.72 588.339M2932.52 517.274L2932.52 446.21M2932.52 517.274L2862.72 517.274M2932.52 446.21L2932.52 375.145M2932.52 446.21L2862.72 446.21M2932.52 375.145L2932.52 304.081M2932.52 375.145L2862.72 375.145M2932.52 304.081L2932.52 233.016M2932.52 304.081L2862.72 304.081M2932.52 233.016L2932.52 161.952M2932.52 233.016L2862.72 233.016M2932.52 161.952L2932.52 90.8876M2932.52 161.952L2862.72 161.952M2932.52 90.8876L2862.72 90.8876M2862.72 1441.11L2862.72 1370.05M2862.72 1441.11L2792.92 1441.11M2862.72 1370.05L2862.72 1298.98M2862.72 1370.05L2792.92 1370.05M2862.72 1298.98L2862.72 1227.92M2862.72 1298.98L2792.92 1298.98M2862.72 1227.92L2862.72 1156.85M2862.72 1227.92L2792.92 1227.92M2862.72 1156.85L2862.72 1085.79M2862.72 1156.85L2792.92 1156.85M2862.72 1085.79L2862.72 1014.73M2862.72 1085.79L2792.92 1085.79M2862.72 1014.73L2862.72 943.661M2862.72 1014.73L2792.92 1014.73M2862.72 943.661L2862.72 872.596M2862.72 943.661L2792.92 943.661M2862.72 872.596L2862.72 801.532M2862.72 872.596L2792.92 872.596M2862.72 801.532L2862.72 730.467M2862.72 801.532L2792.92 801.532M2862.72 730.467L2862.72 659.403M2862.72 730.467L2792.92 730.467M2862.72 659.403L2862.72 588.339M2862.72 659.403L2792.92 659.403M2862.72 588.339L2862.72 517.274M2862.72 588.339L2792.92 588.339M2862.72 517.274L2862.72 446.21M2862.72 517.274L2792.92 517.274M2862.72 446.21L2862.72 375.145M2862.72 446.21L2792.92 446.21M2862.72 375.145L2862.72 304.081M2862.72 375.145L2792.92 375.145M2862.72 304.081L2862.72 233.016M2862.72 304.081L2792.92 304.081M2862.72 233.016L2862.72 161.952M2862.72 233.016L2792.92 233.016M2862.72 161.952L2862.72 90.8876M2862.72 161.952L2792.92 161.952M2862.72 90.8876L2792.92 90.8875M2792.92 1441.11L2792.92 1370.05M2792.92 1441.11L2723.11 1441.11M2792.92 1370.05L2792.92 1298.98M2792.92 1370.05L2723.11 1370.05M2792.92 1298.98L2792.92 1227.92M2792.92 1298.98L2723.11 1298.98M2792.92 1227.92L2792.92 1156.85M2792.92 1227.92L2723.11 1227.92M2792.92 1156.85L2792.92 1085.79M2792.92 1156.85L2723.11 1156.85M2792.92 1085.79L2792.92 1014.73M2792.92 1085.79L2723.11 1085.79M2792.92 1014.73L2792.92 943.661M2792.92 1014.73L2723.11 1014.73M2792.92 943.661L2792.92 872.596M2792.92 943.661L2723.11 943.661M2792.92 872.596L2792.92 801.532M2792.92 872.596L2723.11 872.596M2792.92 801.532L2792.92 730.467M2792.92 801.532L2723.11 801.532M2792.92 730.467L2792.92 659.403M2792.92 730.467L2723.11 730.467M2792.92 659.403L2792.92 588.339M2792.92 659.403L2723.11 659.403M2792.92 588.339L2792.92 517.274M2792.92 588.339L2723.11 588.339M2792.92 517.274L2792.92 446.21M2792.92 517.274L2723.11 517.274M2792.92 446.21L2792.92 375.145M2792.92 446.21L2723.11 446.21M2792.92 375.145L2792.92 304.081M2792.92 375.145L2723.11 375.145M2792.92 304.081L2792.92 233.016M2792.92 304.081L2723.11 304.081M2792.92 233.016L2792.92 161.952M2792.92 233.016L2723.11 233.016M2792.92 161.952L2792.92 90.8875M2792.92 161.952L2723.11 161.952M2792.92 90.8875L2723.11 90.8875M2723.11 1441.11L2723.11 1370.05M2723.11 1441.11L2653.31 1441.11M2723.11 1370.05L2723.11 1298.98M2723.11 1370.05L2653.31 1370.05M2723.11 1298.98L2723.11 1227.92M2723.11 1298.98L2653.31 1298.98M2723.11 1227.92L2723.11 1156.85M2723.11 1227.92L2653.31 1227.92M2723.11 1156.85L2723.11 1085.79M2723.11 1156.85L2653.31 1156.85M2723.11 1085.79L2723.11 1014.73M2723.11 1085.79L2653.31 1085.79M2723.11 1014.73L2723.11 943.661M2723.11 1014.73L2653.31 1014.73M2723.11 943.661L2723.11 872.596M2723.11 943.661L2653.31 943.661M2723.11 872.596L2723.11 801.532M2723.11 872.596L2653.31 872.596M2723.11 801.532L2723.11 730.467M2723.11 801.532L2653.31 801.532M2723.11 730.467L2723.11 659.403M2723.11 730.467L2653.31 730.467M2723.11 659.403L2723.11 588.339M2723.11 659.403L2653.31 659.403M2723.11 588.339L2723.11 517.274M2723.11 588.339L2653.31 588.339M2723.11 517.274L2723.11 446.21M2723.11 517.274L2653.31 517.274M2723.11 446.21L2723.11 375.145M2723.11 446.21L2653.31 446.21M2723.11 375.145L2723.11 304.081M2723.11 375.145L2653.31 375.145M2723.11 304.081L2723.11 233.016M2723.11 304.081L2653.31 304.081M2723.11 233.016L2723.11 161.952M2723.11 233.016L2653.31 233.016M2723.11 161.952L2723.11 90.8875M2723.11 161.952L2653.31 161.952M2723.11 90.8875L2653.31 90.8875M2653.31 1441.11L2653.31 1370.05M2653.31 1441.11L2583.51 1441.11M2653.31 1370.05L2653.31 1298.98M2653.31 1370.05L2583.51 1370.05M2653.31 1298.98L2653.31 1227.92M2653.31 1298.98L2583.51 1298.98M2653.31 1227.92L2653.31 1156.85M2653.31 1227.92L2583.51 1227.92M2653.31 1156.85L2653.31 1085.79M2653.31 1156.85L2583.51 1156.85M2653.31 1085.79L2653.31 1014.73M2653.31 1085.79L2583.51 1085.79M2653.31 1014.73L2653.31 943.661M2653.31 1014.73L2583.51 1014.73M2653.31 943.661L2653.31 872.596M2653.31 943.661L2583.51 943.661M2653.31 872.596L2653.31 801.532M2653.31 872.596L2583.51 872.596M2653.31 801.532L2653.31 730.467M2653.31 801.532L2583.51 801.532M2653.31 730.467L2653.31 659.403M2653.31 730.467L2583.51 730.467M2653.31 659.403L2653.31 588.339M2653.31 659.403L2583.51 659.403M2653.31 588.339L2653.31 517.274M2653.31 588.339L2583.51 588.339M2653.31 517.274L2653.31 446.21M2653.31 517.274L2583.51 517.274M2653.31 446.21L2653.31 375.145M2653.31 446.21L2583.51 446.21M2653.31 375.145L2653.31 304.081M2653.31 375.145L2583.51 375.145M2653.31 304.081L2653.31 233.016M2653.31 304.081L2583.51 304.081M2653.31 233.016L2653.31 161.952M2653.31 233.016L2583.51 233.016M2653.31 161.952L2653.31 90.8875M2653.31 161.952L2583.51 161.952M2653.31 90.8875L2583.51 90.8875M2583.51 1441.11L2583.51 1370.05M2583.51 1441.11L2513.71 1441.11M2583.51 1370.05L2583.51 1298.98M2583.51 1370.05L2513.71 1370.05M2583.51 1298.98L2583.51 1227.92M2583.51 1298.98L2513.71 1298.98M2583.51 1227.92L2583.51 1156.85M2583.51 1227.92L2513.71 1227.92M2583.51 1156.85L2583.51 1085.79M2583.51 1156.85L2513.71 1156.85M2583.51 1085.79L2583.51 1014.73M2583.51 1085.79L2513.71 1085.79M2583.51 1014.73L2583.51 943.661M2583.51 1014.73L2513.71 1014.73M2583.51 943.661L2583.51 872.596M2583.51 943.661L2513.71 943.661M2583.51 872.596L2583.51 801.532M2583.51 872.596L2513.71 872.596M2583.51 801.532L2583.51 730.467M2583.51 801.532L2513.71 801.532M2583.51 730.467L2583.51 659.403M2583.51 730.467L2513.71 730.467M2583.51 659.403L2583.51 588.339M2583.51 659.403L2513.71 659.403M2583.51 588.339L2583.51 517.274M2583.51 588.339L2513.71 588.339M2583.51 517.274L2583.51 446.21M2583.51 517.274L2513.71 517.274M2583.51 446.21L2583.51 375.145M2583.51 446.21L2513.71 446.21M2583.51 375.145L2583.51 304.081M2583.51 375.145L2513.71 375.145M2583.51 304.081L2583.51 233.016M2583.51 304.081L2513.71 304.081M2583.51 233.016L2583.51 161.952M2583.51 233.016L2513.71 233.016M2583.51 161.952L2583.51 90.8875M2583.51 161.952L2513.71 161.952M2583.51 90.8875L2513.71 90.8875M2513.71 1441.11L2513.71 1370.05M2513.71 1441.11L2443.91 1441.11M2513.71 1370.05L2513.71 1298.98M2513.71 1370.05L2443.91 1370.05M2513.71 1298.98L2513.71 1227.92M2513.71 1298.98L2443.91 1298.98M2513.71 1227.92L2513.71 1156.85M2513.71 1227.92L2443.91 1227.92M2513.71 1156.85L2513.71 1085.79M2513.71 1156.85L2443.91 1156.85M2513.71 1085.79L2513.71 1014.73M2513.71 1085.79L2443.91 1085.79M2513.71 1014.73L2513.71 943.661M2513.71 1014.73L2443.91 1014.73M2513.71 943.661L2513.71 872.596M2513.71 943.661L2443.91 943.661M2513.71 872.596L2513.71 801.532M2513.71 872.596L2443.91 872.596M2513.71 801.532L2513.71 730.467M2513.71 801.532L2443.91 801.532M2513.71 730.467L2513.71 659.403M2513.71 730.467L2443.91 730.467M2513.71 659.403L2513.71 588.339M2513.71 659.403L2443.91 659.403M2513.71 588.339L2513.71 517.274M2513.71 588.339L2443.91 588.339M2513.71 517.274L2513.71 446.21M2513.71 517.274L2443.91 517.274M2513.71 446.21L2513.71 375.145M2513.71 446.21L2443.91 446.21M2513.71 375.145L2513.71 304.081M2513.71 375.145L2443.91 375.145M2513.71 304.081L2513.71 233.016M2513.71 304.081L2443.91 304.081M2513.71 233.016L2513.71 161.952M2513.71 233.016L2443.91 233.016M2513.71 161.952L2513.71 90.8875M2513.71 161.952L2443.91 161.952M2513.71 90.8875L2443.91 90.8875M2443.91 1441.11L2443.91 1370.05M2443.91 1441.11L2374.11 1441.11M2443.91 1370.05L2443.91 1298.98M2443.91 1370.05L2374.11 1370.05M2443.91 1298.98L2443.91 1227.92M2443.91 1298.98L2374.11 1298.98M2443.91 1227.92L2443.91 1156.85M2443.91 1227.92L2374.11 1227.92M2443.91 1156.85L2443.91 1085.79M2443.91 1156.85L2374.11 1156.85M2443.91 1085.79L2443.91 1014.73M2443.91 1085.79L2374.11 1085.79M2443.91 1014.73L2443.91 943.661M2443.91 1014.73L2374.11 1014.73M2443.91 943.661L2443.91 872.596M2443.91 943.661L2374.11 943.661M2443.91 872.596L2443.91 801.532M2443.91 872.596L2374.11 872.596M2443.91 801.532L2443.91 730.467M2443.91 801.532L2374.11 801.532M2443.91 730.467L2443.91 659.403M2443.91 730.467L2374.11 730.467M2443.91 659.403L2443.91 588.339M2443.91 659.403L2374.11 659.403M2443.91 588.339L2443.91 517.274M2443.91 588.339L2374.11 588.339M2443.91 517.274L2443.91 446.21M2443.91 517.274L2374.11 517.274M2443.91 446.21L2443.91 375.145M2443.91 446.21L2374.11 446.21M2443.91 375.145L2443.91 304.081M2443.91 375.145L2374.11 375.145M2443.91 304.081L2443.91 233.016M2443.91 304.081L2374.11 304.081M2443.91 233.016L2443.91 161.952M2443.91 233.016L2374.11 233.016M2443.91 161.952L2443.91 90.8875M2443.91 161.952L2374.11 161.952M2443.91 90.8875L2374.11 90.8875M2374.11 1441.11L2374.11 1370.05M2374.11 1441.11L2304.31 1441.11M2374.11 1370.05L2374.11 1298.98M2374.11 1370.05L2304.31 1370.05M2374.11 1298.98L2374.11 1227.92M2374.11 1298.98L2304.31 1298.98M2374.11 1227.92L2374.11 1156.85M2374.11 1227.92L2304.31 1227.92M2374.11 1156.85L2374.11 1085.79M2374.11 1156.85L2304.31 1156.85M2374.11 1085.79L2374.11 1014.73M2374.11 1085.79L2304.31 1085.79M2374.11 1014.73L2374.11 943.661M2374.11 1014.73L2304.31 1014.73M2374.11 943.661L2374.11 872.596M2374.11 943.661L2304.31 943.661M2374.11 872.596L2374.11 801.532M2374.11 872.596L2304.31 872.596M2374.11 801.532L2374.11 730.467M2374.11 801.532L2304.31 801.532M2374.11 730.467L2374.11 659.403M2374.11 730.467L2304.31 730.467M2374.11 659.403L2374.11 588.339M2374.11 659.403L2304.31 659.403M2374.11 588.339L2374.11 517.274M2374.11 588.339L2304.31 588.339M2374.11 517.274L2374.11 446.21M2374.11 517.274L2304.31 517.274M2374.11 446.21L2374.11 375.145M2374.11 446.21L2304.31 446.21M2374.11 375.145L2374.11 304.081M2374.11 375.145L2304.31 375.145M2374.11 304.081L2374.11 233.016M2374.11 304.081L2304.31 304.081M2374.11 233.016L2374.11 161.952M2374.11 233.016L2304.31 233.016M2374.11 161.952L2374.11 90.8875M2374.11 161.952L2304.31 161.952M2374.11 90.8875L2304.31 90.8875M2304.31 1441.11L2304.31 1370.05M2304.31 1441.11L2234.51 1441.11M2304.31 1370.05L2304.31 1298.98M2304.31 1370.05L2234.51 1370.05M2304.31 1298.98L2304.31 1227.92M2304.31 1298.98L2234.51 1298.98M2304.31 1227.92L2304.31 1156.85M2304.31 1227.92L2234.51 1227.92M2304.31 1156.85L2304.31 1085.79M2304.31 1156.85L2234.51 1156.85M2304.31 1085.79L2304.31 1014.73M2304.31 1085.79L2234.51 1085.79M2304.31 1014.73L2304.31 943.661M2304.31 1014.73L2234.51 1014.73M2304.31 943.661L2304.31 872.596M2304.31 943.661L2234.51 943.661M2304.31 872.596L2304.31 801.532M2304.31 872.596L2234.51 872.596M2304.31 801.532L2304.31 730.467M2304.31 801.532L2234.51 801.532M2304.31 730.467L2304.31 659.403M2304.31 730.467L2234.51 730.467M2304.31 659.403L2304.31 588.339M2304.31 659.403L2234.51 659.403M2304.31 588.339L2304.31 517.274M2304.31 588.339L2234.51 588.339M2304.31 517.274L2304.31 446.21M2304.31 517.274L2234.51 517.274M2304.31 446.21L2304.31 375.145M2304.31 446.21L2234.51 446.21M2304.31 375.145L2304.31 304.081M2304.31 375.145L2234.51 375.145M2304.31 304.081L2304.31 233.016M2304.31 304.081L2234.51 304.081M2304.31 233.016L2304.31 161.952M2304.31 233.016L2234.51 233.016M2304.31 161.952L2304.31 90.8875M2304.31 161.952L2234.51 161.952M2304.31 90.8875L2234.51 90.8875M2234.51 1441.11L2234.51 1370.05M2234.51 1441.11L2164.71 1441.11M2234.51 1370.05L2234.51 1298.98M2234.51 1370.05L2164.71 1370.05M2234.51 1298.98L2234.51 1227.92M2234.51 1298.98L2164.71 1298.98M2234.51 1227.92L2234.51 1156.85M2234.51 1227.92L2164.71 1227.92M2234.51 1156.85L2234.51 1085.79M2234.51 1156.85L2164.71 1156.85M2234.51 1085.79L2234.51 1014.73M2234.51 1085.79L2164.71 1085.79M2234.51 1014.73L2234.51 943.661M2234.51 1014.73L2164.71 1014.73M2234.51 943.661L2234.51 872.596M2234.51 943.661L2164.71 943.661M2234.51 872.596L2234.51 801.532M2234.51 872.596L2164.71 872.596M2234.51 801.532L2234.51 730.467M2234.51 801.532L2164.71 801.532M2234.51 730.467L2234.51 659.403M2234.51 730.467L2164.71 730.467M2234.51 659.403L2234.51 588.339M2234.51 659.403L2164.71 659.403M2234.51 588.339L2234.51 517.274M2234.51 588.339L2164.71 588.339M2234.51 517.274L2234.51 446.21M2234.51 517.274L2164.71 517.274M2234.51 446.21L2234.51 375.145M2234.51 446.21L2164.71 446.21M2234.51 375.145L2234.51 304.081M2234.51 375.145L2164.71 375.145M2234.51 304.081L2234.51 233.016M2234.51 304.081L2164.71 304.081M2234.51 233.016L2234.51 161.952M2234.51 233.016L2164.71 233.016M2234.51 161.952L2234.51 90.8875M2234.51 161.952L2164.71 161.952M2234.51 90.8875L2164.71 90.8875M2164.71 1441.11L2164.71 1370.05M2164.71 1441.11L2094.9 1441.11M2164.71 1370.05L2164.71 1298.98M2164.71 1370.05L2094.9 1370.05M2164.71 1298.98L2164.71 1227.92M2164.71 1298.98L2094.9 1298.98M2164.71 1227.92L2164.71 1156.85M2164.71 1227.92L2094.9 1227.92M2164.71 1156.85L2164.71 1085.79M2164.71 1156.85L2094.9 1156.85M2164.71 1085.79L2164.71 1014.73M2164.71 1085.79L2094.9 1085.79M2164.71 1014.73L2164.71 943.661M2164.71 1014.73L2094.9 1014.73M2164.71 943.661L2164.71 872.596M2164.71 943.661L2094.9 943.661M2164.71 872.596L2164.71 801.532M2164.71 872.596L2094.9 872.596M2164.71 801.532L2164.71 730.467M2164.71 801.532L2094.9 801.532M2164.71 730.467L2164.71 659.403M2164.71 730.467L2094.9 730.467M2164.71 659.403L2164.71 588.339M2164.71 659.403L2094.9 659.403M2164.71 588.339L2164.71 517.274M2164.71 588.339L2094.9 588.339M2164.71 517.274L2164.71 446.21M2164.71 517.274L2094.9 517.274M2164.71 446.21L2164.71 375.145M2164.71 446.21L2094.9 446.21M2164.71 375.145L2164.71 304.081M2164.71 375.145L2094.9 375.145M2164.71 304.081L2164.71 233.016M2164.71 304.081L2094.9 304.081M2164.71 233.016L2164.71 161.952M2164.71 233.016L2094.9 233.016M2164.71 161.952L2164.71 90.8875M2164.71 161.952L2094.9 161.952M2164.71 90.8875L2094.9 90.8875M2094.9 1441.11L2094.9 1370.05M2094.9 1441.11L2025.1 1441.11M2094.9 1370.05L2094.9 1298.98M2094.9 1370.05L2025.1 1370.05M2094.9 1298.98L2094.9 1227.92M2094.9 1298.98L2025.1 1298.98M2094.9 1227.92L2094.9 1156.85M2094.9 1227.92L2025.1 1227.92M2094.9 1156.85L2094.9 1085.79M2094.9 1156.85L2025.1 1156.85M2094.9 1085.79L2094.9 1014.73M2094.9 1085.79L2025.1 1085.79M2094.9 1014.73L2094.9 943.661M2094.9 1014.73L2025.1 1014.73M2094.9 943.661L2094.9 872.596M2094.9 943.661L2025.1 943.661M2094.9 872.596L2094.9 801.532M2094.9 872.596L2025.1 872.596M2094.9 801.532L2094.9 730.467M2094.9 801.532L2025.1 801.532M2094.9 730.467L2094.9 659.403M2094.9 730.467L2025.1 730.467M2094.9 659.403L2094.9 588.339M2094.9 659.403L2025.1 659.403M2094.9 588.339L2094.9 517.274M2094.9 588.339L2025.1 588.339M2094.9 517.274L2094.9 446.21M2094.9 517.274L2025.1 517.274M2094.9 446.21L2094.9 375.145M2094.9 446.21L2025.1 446.21M2094.9 375.145L2094.9 304.081M2094.9 375.145L2025.1 375.145M2094.9 304.081L2094.9 233.016M2094.9 304.081L2025.1 304.081M2094.9 233.016L2094.9 161.952M2094.9 233.016L2025.1 233.016M2094.9 161.952L2094.9 90.8875M2094.9 161.952L2025.1 161.952M2094.9 90.8875L2025.1 90.8875M2025.1 1441.11L2025.1 1370.05M2025.1 1441.11L1955.3 1441.11M2025.1 1370.05L2025.1 1298.98M2025.1 1370.05L1955.3 1370.05M2025.1 1298.98L2025.1 1227.92M2025.1 1298.98L1955.3 1298.98M2025.1 1227.92L2025.1 1156.85M2025.1 1227.92L1955.3 1227.92M2025.1 1156.85L2025.1 1085.79M2025.1 1156.85L1955.3 1156.85M2025.1 1085.79L2025.1 1014.73M2025.1 1085.79L1955.3 1085.79M2025.1 1014.73L2025.1 943.661M2025.1 1014.73L1955.3 1014.73M2025.1 943.661L2025.1 872.596M2025.1 943.661L1955.3 943.661M2025.1 872.596L2025.1 801.532M2025.1 872.596L1955.3 872.596M2025.1 801.532L2025.1 730.467M2025.1 801.532L1955.3 801.532M2025.1 730.467L2025.1 659.403M2025.1 730.467L1955.3 730.467M2025.1 659.403L2025.1 588.339M2025.1 659.403L1955.3 659.403M2025.1 588.339L2025.1 517.274M2025.1 588.339L1955.3 588.339M2025.1 517.274L2025.1 446.21M2025.1 517.274L1955.3 517.274M2025.1 446.21L2025.1 375.145M2025.1 446.21L1955.3 446.21M2025.1 375.145L2025.1 304.081M2025.1 375.145L1955.3 375.145M2025.1 304.081L2025.1 233.016M2025.1 304.081L1955.3 304.081M2025.1 233.016L2025.1 161.952M2025.1 233.016L1955.3 233.016M2025.1 161.952L2025.1 90.8875M2025.1 161.952L1955.3 161.952M2025.1 90.8875L1955.3 90.8875M1955.3 1441.11L1955.3 1370.05M1955.3 1441.11L1885.5 1441.11M1955.3 1370.05L1955.3 1298.98M1955.3 1370.05L1885.5 1370.05M1955.3 1298.98L1955.3 1227.92M1955.3 1298.98L1885.5 1298.98M1955.3 1227.92L1955.3 1156.85M1955.3 1227.92L1885.5 1227.92M1955.3 1156.85L1955.3 1085.79M1955.3 1156.85L1885.5 1156.85M1955.3 1085.79L1955.3 1014.73M1955.3 1085.79L1885.5 1085.79M1955.3 1014.73L1955.3 943.661M1955.3 1014.73L1885.5 1014.73M1955.3 943.661L1955.3 872.596M1955.3 943.661L1885.5 943.661M1955.3 872.596L1955.3 801.532M1955.3 872.596L1885.5 872.596M1955.3 801.532L1955.3 730.467M1955.3 801.532L1885.5 801.532M1955.3 730.467L1955.3 659.403M1955.3 730.467L1885.5 730.467M1955.3 659.403L1955.3 588.339M1955.3 659.403L1885.5 659.403M1955.3 588.339L1955.3 517.274M1955.3 588.339L1885.5 588.339M1955.3 517.274L1955.3 446.21M1955.3 517.274L1885.5 517.274M1955.3 446.21L1955.3 375.145M1955.3 446.21L1885.5 446.21M1955.3 375.145L1955.3 304.081M1955.3 375.145L1885.5 375.145M1955.3 304.081L1955.3 233.016M1955.3 304.081L1885.5 304.081M1955.3 233.016L1955.3 161.952M1955.3 233.016L1885.5 233.016M1955.3 161.952L1955.3 90.8875M1955.3 161.952L1885.5 161.952M1955.3 90.8875L1885.5 90.8875M1885.5 1441.11L1885.5 1370.05M1885.5 1441.11L1815.7 1441.11M1885.5 1370.05L1885.5 1298.98M1885.5 1370.05L1815.7 1370.05M1885.5 1298.98L1885.5 1227.92M1885.5 1298.98L1815.7 1298.98M1885.5 1227.92L1885.5 1156.85M1885.5 1227.92L1815.7 1227.92M1885.5 1156.85L1885.5 1085.79M1885.5 1156.85L1815.7 1156.85M1885.5 1085.79L1885.5 1014.73M1885.5 1085.79L1815.7 1085.79M1885.5 1014.73L1885.5 943.661M1885.5 1014.73L1815.7 1014.73M1885.5 943.661L1885.5 872.596M1885.5 943.661L1815.7 943.661M1885.5 872.596L1885.5 801.532M1885.5 872.596L1815.7 872.596M1885.5 801.532L1885.5 730.467M1885.5 801.532L1815.7 801.532M1885.5 730.467L1885.5 659.403M1885.5 730.467L1815.7 730.467M1885.5 659.403L1885.5 588.339M1885.5 659.403L1815.7 659.403M1885.5 588.339L1885.5 517.274M1885.5 588.339L1815.7 588.339M1885.5 517.274L1885.5 446.21M1885.5 517.274L1815.7 517.274M1885.5 446.21L1885.5 375.145M1885.5 446.21L1815.7 446.21M1885.5 375.145L1885.5 304.081M1885.5 375.145L1815.7 375.145M1885.5 304.081L1885.5 233.016M1885.5 304.081L1815.7 304.081M1885.5 233.016L1885.5 161.952M1885.5 233.016L1815.7 233.016M1885.5 161.952L1885.5 90.8875M1885.5 161.952L1815.7 161.952M1885.5 90.8875L1815.7 90.8875M1815.7 1441.11L1815.7 1370.05M1815.7 1441.11L1745.9 1441.11M1815.7 1370.05L1815.7 1298.98M1815.7 1370.05L1745.9 1370.05M1815.7 1298.98L1815.7 1227.92M1815.7 1298.98L1745.9 1298.98M1815.7 1227.92L1815.7 1156.85M1815.7 1227.92L1745.9 1227.92M1815.7 1156.85L1815.7 1085.79M1815.7 1156.85L1745.9 1156.85M1815.7 1085.79L1815.7 1014.73M1815.7 1085.79L1745.9 1085.79M1815.7 1014.73L1815.7 943.661M1815.7 1014.73L1745.9 1014.73M1815.7 943.661L1815.7 872.596M1815.7 943.661L1745.9 943.661M1815.7 872.596L1815.7 801.532M1815.7 872.596L1745.9 872.596M1815.7 801.532L1815.7 730.467M1815.7 801.532L1745.9 801.532M1815.7 730.467L1815.7 659.403M1815.7 730.467L1745.9 730.467M1815.7 659.403L1815.7 588.339M1815.7 659.403L1745.9 659.403M1815.7 588.339L1815.7 517.274M1815.7 588.339L1745.9 588.338M1815.7 517.274L1815.7 446.21M1815.7 517.274L1745.9 517.274M1815.7 446.21L1815.7 375.145M1815.7 446.21L1745.9 446.21M1815.7 375.145L1815.7 304.081M1815.7 375.145L1745.9 375.145M1815.7 304.081L1815.7 233.016M1815.7 304.081L1745.9 304.081M1815.7 233.016L1815.7 161.952M1815.7 233.016L1745.9 233.016M1815.7 161.952L1815.7 90.8875M1815.7 161.952L1745.9 161.952M1815.7 90.8875L1745.9 90.8875M1745.9 1441.11L1745.9 1370.05M1745.9 1441.11L1676.1 1441.11M1745.9 1370.05L1745.9 1298.98M1745.9 1370.05L1676.1 1370.05M1745.9 1298.98L1745.9 1227.92M1745.9 1298.98L1676.1 1298.98M1745.9 1227.92L1745.9 1156.85M1745.9 1227.92L1676.1 1227.92M1745.9 1156.85L1745.9 1085.79M1745.9 1156.85L1676.1 1156.85M1745.9 1085.79L1745.9 1014.73M1745.9 1085.79L1676.1 1085.79M1745.9 1014.73L1745.9 943.661M1745.9 1014.73L1676.1 1014.73M1745.9 943.661L1745.9 872.596M1745.9 943.661L1676.1 943.661M1745.9 872.596L1745.9 801.532M1745.9 872.596L1676.1 872.596M1745.9 801.532L1745.9 730.467M1745.9 801.532L1676.1 801.532M1745.9 730.467L1745.9 659.403M1745.9 730.467L1676.1 730.467M1745.9 659.403L1745.9 588.338M1745.9 659.403L1676.1 659.403M1745.9 588.338L1745.9 517.274M1745.9 588.338L1676.1 588.338M1745.9 517.274L1745.9 446.21M1745.9 517.274L1676.1 517.274M1745.9 446.21L1745.9 375.145M1745.9 446.21L1676.1 446.21M1745.9 375.145L1745.9 304.081M1745.9 375.145L1676.1 375.145M1745.9 304.081L1745.9 233.016M1745.9 304.081L1676.1 304.081M1745.9 233.016L1745.9 161.952M1745.9 233.016L1676.1 233.016M1745.9 161.952L1745.9 90.8875M1745.9 161.952L1676.1 161.952M1745.9 90.8875L1676.1 90.8874M1676.1 1441.11L1676.1 1370.05M1676.1 1441.11L1606.3 1441.11M1676.1 1370.05L1676.1 1298.98M1676.1 1370.05L1606.3 1370.05M1676.1 1298.98L1676.1 1227.92M1676.1 1298.98L1606.3 1298.98M1676.1 1227.92L1676.1 1156.85M1676.1 1227.92L1606.3 1227.92M1676.1 1156.85L1676.1 1085.79M1676.1 1156.85L1606.3 1156.85M1676.1 1085.79L1676.1 1014.73M1676.1 1085.79L1606.3 1085.79M1676.1 1014.73L1676.1 943.661M1676.1 1014.73L1606.3 1014.73M1676.1 943.661L1676.1 872.596M1676.1 943.661L1606.3 943.661M1676.1 872.596L1676.1 801.532M1676.1 872.596L1606.3 872.596M1676.1 801.532L1676.1 730.467M1676.1 801.532L1606.3 801.532M1676.1 730.467L1676.1 659.403M1676.1 730.467L1606.3 730.467M1676.1 659.403L1676.1 588.338M1676.1 659.403L1606.3 659.403M1676.1 588.338L1676.1 517.274M1676.1 588.338L1606.3 588.338M1676.1 517.274L1676.1 446.21M1676.1 517.274L1606.3 517.274M1676.1 446.21L1676.1 375.145M1676.1 446.21L1606.3 446.21M1676.1 375.145L1676.1 304.081M1676.1 375.145L1606.3 375.145M1676.1 304.081L1676.1 233.016M1676.1 304.081L1606.3 304.081M1676.1 233.016L1676.1 161.952M1676.1 233.016L1606.3 233.016M1676.1 161.952L1676.1 90.8874M1676.1 161.952L1606.3 161.952M1676.1 90.8874L1606.3 90.8874M1606.3 1441.11L1606.3 1370.05M1606.3 1441.11L1536.5 1441.11M1606.3 1370.05L1606.3 1298.98M1606.3 1370.05L1536.5 1370.05M1606.3 1298.98L1606.3 1227.92M1606.3 1298.98L1536.5 1298.98M1606.3 1227.92L1606.3 1156.85M1606.3 1227.92L1536.5 1227.92M1606.3 1156.85L1606.3 1085.79M1606.3 1156.85L1536.5 1156.85M1606.3 1085.79L1606.3 1014.73M1606.3 1085.79L1536.5 1085.79M1606.3 1014.73L1606.3 943.661M1606.3 1014.73L1536.5 1014.73M1606.3 943.661L1606.3 872.596M1606.3 943.661L1536.5 943.661M1606.3 872.596L1606.3 801.532M1606.3 872.596L1536.5 872.596M1606.3 801.532L1606.3 730.467M1606.3 801.532L1536.5 801.532M1606.3 730.467L1606.3 659.403M1606.3 730.467L1536.5 730.467M1606.3 659.403L1606.3 588.338M1606.3 659.403L1536.5 659.403M1606.3 588.338L1606.3 517.274M1606.3 588.338L1536.5 588.338M1606.3 517.274L1606.3 446.21M1606.3 517.274L1536.5 517.274M1606.3 446.21L1606.3 375.145M1606.3 446.21L1536.5 446.21M1606.3 375.145L1606.3 304.081M1606.3 375.145L1536.5 375.145M1606.3 304.081L1606.3 233.016M1606.3 304.081L1536.5 304.081M1606.3 233.016L1606.3 161.952M1606.3 233.016L1536.5 233.016M1606.3 161.952L1606.3 90.8874M1606.3 161.952L1536.5 161.952M1606.3 90.8874L1536.5 90.8874M1536.5 1441.11L1536.5 1370.05M1536.5 1441.11L1466.69 1441.11M1536.5 1370.05L1536.5 1298.98M1536.5 1370.05L1466.7 1370.05M1536.5 1298.98L1536.5 1227.92M1536.5 1298.98L1466.7 1298.98M1536.5 1227.92L1536.5 1156.85M1536.5 1227.92L1466.7 1227.92M1536.5 1156.85L1536.5 1085.79M1536.5 1156.85L1466.7 1156.85M1536.5 1085.79L1536.5 1014.73M1536.5 1085.79L1466.7 1085.79M1536.5 1014.73L1536.5 943.661M1536.5 1014.73L1466.7 1014.73M1536.5 943.661L1536.5 872.596M1536.5 943.661L1466.7 943.661M1536.5 872.596L1536.5 801.532M1536.5 872.596L1466.7 872.596M1536.5 801.532L1536.5 730.467M1536.5 801.532L1466.7 801.532M1536.5 730.467L1536.5 659.403M1536.5 730.467L1466.7 730.467M1536.5 659.403L1536.5 588.338M1536.5 659.403L1466.7 659.403M1536.5 588.338L1536.5 517.274M1536.5 588.338L1466.7 588.338M1536.5 517.274L1536.5 446.21M1536.5 517.274L1466.7 517.274M1536.5 446.21L1536.5 375.145M1536.5 446.21L1466.7 446.21M1536.5 375.145L1536.5 304.081M1536.5 375.145L1466.7 375.145M1536.5 304.081L1536.5 233.016M1536.5 304.081L1466.7 304.081M1536.5 233.016L1536.5 161.952M1536.5 233.016L1466.7 233.016M1536.5 161.952L1536.5 90.8874M1536.5 161.952L1466.7 161.952M1536.5 90.8874L1466.7 90.8874M1466.69 1441.11L1466.7 1370.05M1466.69 1441.11L1396.89 1441.11M1466.7 1370.05L1466.7 1298.98M1466.7 1370.05L1396.89 1370.05M1466.7 1298.98L1466.7 1227.92M1466.7 1298.98L1396.89 1298.98M1466.7 1227.92L1466.7 1156.85M1466.7 1227.92L1396.89 1227.92M1466.7 1156.85L1466.7 1085.79M1466.7 1156.85L1396.89 1156.85M1466.7 1085.79L1466.7 1014.73M1466.7 1085.79L1396.89 1085.79M1466.7 1014.73L1466.7 943.661M1466.7 1014.73L1396.89 1014.73M1466.7 943.661L1466.7 872.596M1466.7 943.661L1396.89 943.661M1466.7 872.596L1466.7 801.532M1466.7 872.596L1396.89 872.596M1466.7 801.532L1466.7 730.467M1466.7 801.532L1396.89 801.532M1466.7 730.467L1466.7 659.403M1466.7 730.467L1396.89 730.467M1466.7 659.403L1466.7 588.338M1466.7 659.403L1396.89 659.403M1466.7 588.338L1466.7 517.274M1466.7 588.338L1396.89 588.338M1466.7 517.274L1466.7 446.21M1466.7 517.274L1396.89 517.274M1466.7 446.21L1466.7 375.145M1466.7 446.21L1396.89 446.21M1466.7 375.145L1466.7 304.081M1466.7 375.145L1396.89 375.145M1466.7 304.081L1466.7 233.016M1466.7 304.081L1396.89 304.081M1466.7 233.016L1466.7 161.952M1466.7 233.016L1396.89 233.016M1466.7 161.952L1466.7 90.8874M1466.7 161.952L1396.89 161.952M1466.7 90.8874L1396.89 90.8874M1396.89 1441.11L1396.89 1370.05M1396.89 1441.11L1327.09 1441.11M1396.89 1370.05L1396.89 1298.98M1396.89 1370.05L1327.09 1370.05M1396.89 1298.98L1396.89 1227.92M1396.89 1298.98L1327.09 1298.98M1396.89 1227.92L1396.89 1156.85M1396.89 1227.92L1327.09 1227.92M1396.89 1156.85L1396.89 1085.79M1396.89 1156.85L1327.09 1156.85M1396.89 1085.79L1396.89 1014.73M1396.89 1085.79L1327.09 1085.79M1396.89 1014.73L1396.89 943.661M1396.89 1014.73L1327.09 1014.73M1396.89 943.661L1396.89 872.596M1396.89 943.661L1327.09 943.661M1396.89 872.596L1396.89 801.532M1396.89 872.596L1327.09 872.596M1396.89 801.532L1396.89 730.467M1396.89 801.532L1327.09 801.532M1396.89 730.467L1396.89 659.403M1396.89 730.467L1327.09 730.467M1396.89 659.403L1396.89 588.338M1396.89 659.403L1327.09 659.403M1396.89 588.338L1396.89 517.274M1396.89 588.338L1327.09 588.338M1396.89 517.274L1396.89 446.21M1396.89 517.274L1327.09 517.274M1396.89 446.21L1396.89 375.145M1396.89 446.21L1327.09 446.21M1396.89 375.145L1396.89 304.081M1396.89 375.145L1327.09 375.145M1396.89 304.081L1396.89 233.016M1396.89 304.081L1327.09 304.081M1396.89 233.016L1396.89 161.952M1396.89 233.016L1327.09 233.016M1396.89 161.952L1396.89 90.8874M1396.89 161.952L1327.09 161.952M1396.89 90.8874L1327.09 90.8874M1327.09 1441.11L1327.09 1370.05M1327.09 1441.11L1257.29 1441.11M1327.09 1370.05L1327.09 1298.98M1327.09 1370.05L1257.29 1370.05M1327.09 1298.98L1327.09 1227.92M1327.09 1298.98L1257.29 1298.98M1327.09 1227.92L1327.09 1156.85M1327.09 1227.92L1257.29 1227.92M1327.09 1156.85L1327.09 1085.79M1327.09 1156.85L1257.29 1156.85M1327.09 1085.79L1327.09 1014.73M1327.09 1085.79L1257.29 1085.79M1327.09 1014.73L1327.09 943.661M1327.09 1014.73L1257.29 1014.73M1327.09 943.661L1327.09 872.596M1327.09 943.661L1257.29 943.661M1327.09 872.596L1327.09 801.532M1327.09 872.596L1257.29 872.596M1327.09 801.532L1327.09 730.467M1327.09 801.532L1257.29 801.532M1327.09 730.467L1327.09 659.403M1327.09 730.467L1257.29 730.467M1327.09 659.403L1327.09 588.338M1327.09 659.403L1257.29 659.403M1327.09 588.338L1327.09 517.274M1327.09 588.338L1257.29 588.338M1327.09 517.274L1327.09 446.21M1327.09 517.274L1257.29 517.274M1327.09 446.21L1327.09 375.145M1327.09 446.21L1257.29 446.21M1327.09 375.145L1327.09 304.081M1327.09 375.145L1257.29 375.145M1327.09 304.081L1327.09 233.016M1327.09 304.081L1257.29 304.081M1327.09 233.016L1327.09 161.952M1327.09 233.016L1257.29 233.016M1327.09 161.952L1327.09 90.8874M1327.09 161.952L1257.29 161.952M1327.09 90.8874L1257.29 90.8874M1257.29 1441.11L1257.29 1370.05M1257.29 1441.11L1187.49 1441.11M1257.29 1370.05L1257.29 1298.98M1257.29 1370.05L1187.49 1370.05M1257.29 1298.98L1257.29 1227.92M1257.29 1298.98L1187.49 1298.98M1257.29 1227.92L1257.29 1156.85M1257.29 1227.92L1187.49 1227.92M1257.29 1156.85L1257.29 1085.79M1257.29 1156.85L1187.49 1156.85M1257.29 1085.79L1257.29 1014.73M1257.29 1085.79L1187.49 1085.79M1257.29 1014.73L1257.29 943.661M1257.29 1014.73L1187.49 1014.73M1257.29 943.661L1257.29 872.596M1257.29 943.661L1187.49 943.661M1257.29 872.596L1257.29 801.532M1257.29 872.596L1187.49 872.596M1257.29 801.532L1257.29 730.467M1257.29 801.532L1187.49 801.532M1257.29 730.467L1257.29 659.403M1257.29 730.467L1187.49 730.467M1257.29 659.403L1257.29 588.338M1257.29 659.403L1187.49 659.403M1257.29 588.338L1257.29 517.274M1257.29 588.338L1187.49 588.338M1257.29 517.274L1257.29 446.21M1257.29 517.274L1187.49 517.274M1257.29 446.21L1257.29 375.145M1257.29 446.21L1187.49 446.21M1257.29 375.145L1257.29 304.081M1257.29 375.145L1187.49 375.145M1257.29 304.081L1257.29 233.016M1257.29 304.081L1187.49 304.081M1257.29 233.016L1257.29 161.952M1257.29 233.016L1187.49 233.016M1257.29 161.952L1257.29 90.8874M1257.29 161.952L1187.49 161.952M1257.29 90.8874L1187.49 90.8874M1187.49 1441.11L1187.49 1370.05M1187.49 1441.11L1117.69 1441.11M1187.49 1370.05L1187.49 1298.98M1187.49 1370.05L1117.69 1370.05M1187.49 1298.98L1187.49 1227.92M1187.49 1298.98L1117.69 1298.98M1187.49 1227.92L1187.49 1156.85M1187.49 1227.92L1117.69 1227.92M1187.49 1156.85L1187.49 1085.79M1187.49 1156.85L1117.69 1156.85M1187.49 1085.79L1187.49 1014.73M1187.49 1085.79L1117.69 1085.79M1187.49 1014.73L1187.49 943.661M1187.49 1014.73L1117.69 1014.73M1187.49 943.661L1187.49 872.596M1187.49 943.661L1117.69 943.661M1187.49 872.596L1187.49 801.532M1187.49 872.596L1117.69 872.596M1187.49 801.532L1187.49 730.467M1187.49 801.532L1117.69 801.532M1187.49 730.467L1187.49 659.403M1187.49 730.467L1117.69 730.467M1187.49 659.403L1187.49 588.338M1187.49 659.403L1117.69 659.403M1187.49 588.338L1187.49 517.274M1187.49 588.338L1117.69 588.338M1187.49 517.274L1187.49 446.21M1187.49 517.274L1117.69 517.274M1187.49 446.21L1187.49 375.145M1187.49 446.21L1117.69 446.21M1187.49 375.145L1187.49 304.081M1187.49 375.145L1117.69 375.145M1187.49 304.081L1187.49 233.016M1187.49 304.081L1117.69 304.081M1187.49 233.016L1187.49 161.952M1187.49 233.016L1117.69 233.016M1187.49 161.952L1187.49 90.8874M1187.49 161.952L1117.69 161.952M1187.49 90.8874L1117.69 90.8874M1117.69 1441.11L1117.69 1370.05M1117.69 1441.11L1047.89 1441.11M1117.69 1370.05L1117.69 1298.98M1117.69 1370.05L1047.89 1370.05M1117.69 1298.98L1117.69 1227.92M1117.69 1298.98L1047.89 1298.98M1117.69 1227.92L1117.69 1156.85M1117.69 1227.92L1047.89 1227.92M1117.69 1156.85L1117.69 1085.79M1117.69 1156.85L1047.89 1156.85M1117.69 1085.79L1117.69 1014.73M1117.69 1085.79L1047.89 1085.79M1117.69 1014.73L1117.69 943.661M1117.69 1014.73L1047.89 1014.73M1117.69 943.661L1117.69 872.596M1117.69 943.661L1047.89 943.661M1117.69 872.596L1117.69 801.532M1117.69 872.596L1047.89 872.596M1117.69 801.532L1117.69 730.467M1117.69 801.532L1047.89 801.532M1117.69 730.467L1117.69 659.403M1117.69 730.467L1047.89 730.467M1117.69 659.403L1117.69 588.338M1117.69 659.403L1047.89 659.403M1117.69 588.338L1117.69 517.274M1117.69 588.338L1047.89 588.338M1117.69 517.274L1117.69 446.21M1117.69 517.274L1047.89 517.274M1117.69 446.21L1117.69 375.145M1117.69 446.21L1047.89 446.21M1117.69 375.145L1117.69 304.081M1117.69 375.145L1047.89 375.145M1117.69 304.081L1117.69 233.016M1117.69 304.081L1047.89 304.081M1117.69 233.016L1117.69 161.952M1117.69 233.016L1047.89 233.016M1117.69 161.952L1117.69 90.8874M1117.69 161.952L1047.89 161.952M1117.69 90.8874L1047.89 90.8874M1047.89 1441.11L1047.89 1370.05M1047.89 1441.11L978.088 1441.11M1047.89 1370.05L1047.89 1298.98M1047.89 1370.05L978.088 1370.05M1047.89 1298.98L1047.89 1227.92M1047.89 1298.98L978.088 1298.98M1047.89 1227.92L1047.89 1156.85M1047.89 1227.92L978.088 1227.92M1047.89 1156.85L1047.89 1085.79M1047.89 1156.85L978.088 1156.85M1047.89 1085.79L1047.89 1014.73M1047.89 1085.79L978.088 1085.79M1047.89 1014.73L1047.89 943.661M1047.89 1014.73L978.088 1014.73M1047.89 943.661L1047.89 872.596M1047.89 943.661L978.088 943.661M1047.89 872.596L1047.89 801.532M1047.89 872.596L978.088 872.596M1047.89 801.532L1047.89 730.467M1047.89 801.532L978.088 801.532M1047.89 730.467L1047.89 659.403M1047.89 730.467L978.088 730.467M1047.89 659.403L1047.89 588.338M1047.89 659.403L978.088 659.403M1047.89 588.338L1047.89 517.274M1047.89 588.338L978.088 588.338M1047.89 517.274L1047.89 446.21M1047.89 517.274L978.088 517.274M1047.89 446.21L1047.89 375.145M1047.89 446.21L978.088 446.21M1047.89 375.145L1047.89 304.081M1047.89 375.145L978.088 375.145M1047.89 304.081L1047.89 233.016M1047.89 304.081L978.088 304.081M1047.89 233.016L1047.89 161.952M1047.89 233.016L978.088 233.016M1047.89 161.952L1047.89 90.8874M1047.89 161.952L978.088 161.952M1047.89 90.8874L978.088 90.8874M978.088 1441.11L978.088 1370.05M978.088 1441.11L908.286 1441.11M978.088 1370.05L978.088 1298.98M978.088 1370.05L908.286 1370.05M978.088 1298.98L978.088 1227.92M978.088 1298.98L908.286 1298.98M978.088 1227.92L978.088 1156.85M978.088 1227.92L908.287 1227.92M978.088 1156.85L978.088 1085.79M978.088 1156.85L908.287 1156.85M978.088 1085.79L978.088 1014.73M978.088 1085.79L908.287 1085.79M978.088 1014.73L978.088 943.661M978.088 1014.73L908.287 1014.73M978.088 943.661L978.088 872.596M978.088 943.661L908.287 943.661M978.088 872.596L978.088 801.532M978.088 872.596L908.287 872.596M978.088 801.532L978.088 730.467M978.088 801.532L908.287 801.532M978.088 730.467L978.088 659.403M978.088 730.467L908.287 730.467M978.088 659.403L978.088 588.338M978.088 659.403L908.287 659.403M978.088 588.338L978.088 517.274M978.088 588.338L908.287 588.338M978.088 517.274L978.088 446.21M978.088 517.274L908.287 517.274M978.088 446.21L978.088 375.145M978.088 446.21L908.287 446.21M978.088 375.145L978.088 304.081M978.088 375.145L908.287 375.145M978.088 304.081L978.088 233.016M978.088 304.081L908.287 304.081M978.088 233.016L978.088 161.952M978.088 233.016L908.287 233.016M978.088 161.952L978.088 90.8874M978.088 161.952L908.287 161.952M978.088 90.8874L908.287 90.8874M908.286 1441.11L908.286 1370.05M908.286 1441.11L838.485 1441.11M908.286 1370.05L908.286 1298.98M908.286 1370.05L838.485 1370.05M908.286 1298.98L908.287 1227.92M908.286 1298.98L838.485 1298.98M908.287 1227.92L908.287 1156.85M908.287 1227.92L838.485 1227.92M908.287 1156.85L908.287 1085.79M908.287 1156.85L838.485 1156.85M908.287 1085.79L908.287 1014.73M908.287 1085.79L838.485 1085.79M908.287 1014.73L908.287 943.661M908.287 1014.73L838.485 1014.73M908.287 943.661L908.287 872.596M908.287 943.661L838.485 943.661M908.287 872.596L908.287 801.532M908.287 872.596L838.485 872.596M908.287 801.532L908.287 730.467M908.287 801.532L838.485 801.532M908.287 730.467L908.287 659.403M908.287 730.467L838.485 730.467M908.287 659.403L908.287 588.338M908.287 659.403L838.485 659.403M908.287 588.338L908.287 517.274M908.287 588.338L838.485 588.338M908.287 517.274L908.287 446.21M908.287 517.274L838.485 517.274M908.287 446.21L908.287 375.145M908.287 446.21L838.486 446.21M908.287 375.145L908.287 304.081M908.287 375.145L838.486 375.145M908.287 304.081L908.287 233.016M908.287 304.081L838.486 304.081M908.287 233.016L908.287 161.952M908.287 233.016L838.486 233.016M908.287 161.952L908.287 90.8874M908.287 161.952L838.486 161.952M908.287 90.8874L838.486 90.8874M838.485 1441.11L838.485 1370.05M838.485 1441.11L768.684 1441.11M838.485 1370.05L838.485 1298.98M838.485 1370.05L768.684 1370.05M838.485 1298.98L838.485 1227.92M838.485 1298.98L768.684 1298.98M838.485 1227.92L838.485 1156.85M838.485 1227.92L768.684 1227.92M838.485 1156.85L838.485 1085.79M838.485 1156.85L768.684 1156.85M838.485 1085.79L838.485 1014.73M838.485 1085.79L768.684 1085.79M838.485 1014.73L838.485 943.661M838.485 1014.73L768.684 1014.73M838.485 943.661L838.485 872.596M838.485 943.661L768.684 943.661M838.485 872.596L838.485 801.532M838.485 872.596L768.684 872.596M838.485 801.532L838.485 730.467M838.485 801.532L768.684 801.532M838.485 730.467L838.485 659.403M838.485 730.467L768.684 730.467M838.485 659.403L838.485 588.338M838.485 659.403L768.684 659.403M838.485 588.338L838.485 517.274M838.485 588.338L768.684 588.338M838.485 517.274L838.486 446.21M838.485 517.274L768.684 517.274M838.486 446.21L838.486 375.145M838.486 446.21L768.684 446.21M838.486 375.145L838.486 304.081M838.486 375.145L768.684 375.145M838.486 304.081L838.486 233.016M838.486 304.081L768.684 304.081M838.486 233.016L838.486 161.952M838.486 233.016L768.684 233.016M838.486 161.952L838.486 90.8874M838.486 161.952L768.684 161.952M838.486 90.8874L768.684 90.8874M768.684 1441.11L768.684 1370.05M768.684 1441.11L698.883 1441.11M768.684 1370.05L768.684 1298.98M768.684 1370.05L698.883 1370.05M768.684 1298.98L768.684 1227.92M768.684 1298.98L698.883 1298.98M768.684 1227.92L768.684 1156.85M768.684 1227.92L698.883 1227.92M768.684 1156.85L768.684 1085.79M768.684 1156.85L698.883 1156.85M768.684 1085.79L768.684 1014.73M768.684 1085.79L698.883 1085.79M768.684 1014.73L768.684 943.661M768.684 1014.73L698.883 1014.73M768.684 943.661L768.684 872.596M768.684 943.661L698.883 943.661M768.684 872.596L768.684 801.532M768.684 872.596L698.883 872.596M768.684 801.532L768.684 730.467M768.684 801.532L698.883 801.532M768.684 730.467L768.684 659.403M768.684 730.467L698.883 730.467M768.684 659.403L768.684 588.338M768.684 659.403L698.883 659.403M768.684 588.338L768.684 517.274M768.684 588.338L698.883 588.338M768.684 517.274L768.684 446.21M768.684 517.274L698.883 517.274M768.684 446.21L768.684 375.145M768.684 446.21L698.883 446.21M768.684 375.145L768.684 304.081M768.684 375.145L698.883 375.145M768.684 304.081L768.684 233.016M768.684 304.081L698.883 304.081M768.684 233.016L768.684 161.952M768.684 233.016L698.883 233.016M768.684 161.952L768.684 90.8874M768.684 161.952L698.883 161.952M768.684 90.8874L698.883 90.8874M698.883 1441.11L698.883 1370.05M698.883 1441.11L629.082 1441.11M698.883 1370.05L698.883 1298.98M698.883 1370.05L629.082 1370.05M698.883 1298.98L698.883 1227.92M698.883 1298.98L629.082 1298.98M698.883 1227.92L698.883 1156.85M698.883 1227.92L629.082 1227.92M698.883 1156.85L698.883 1085.79M698.883 1156.85L629.082 1156.85M698.883 1085.79L698.883 1014.73M698.883 1085.79L629.082 1085.79M698.883 1014.73L698.883 943.661M698.883 1014.73L629.082 1014.73M698.883 943.661L698.883 872.596M698.883 943.661L629.082 943.661M698.883 872.596L698.883 801.532M698.883 872.596L629.082 872.596M698.883 801.532L698.883 730.467M698.883 801.532L629.082 801.532M698.883 730.467L698.883 659.403M698.883 730.467L629.082 730.467M698.883 659.403L698.883 588.338M698.883 659.403L629.082 659.403M698.883 588.338L698.883 517.274M698.883 588.338L629.082 588.338M698.883 517.274L698.883 446.21M698.883 517.274L629.082 517.274M698.883 446.21L698.883 375.145M698.883 446.21L629.082 446.21M698.883 375.145L698.883 304.081M698.883 375.145L629.082 375.145M698.883 304.081L698.883 233.016M698.883 304.081L629.082 304.081M698.883 233.016L698.883 161.952M698.883 233.016L629.082 233.016M698.883 161.952L698.883 90.8874M698.883 161.952L629.082 161.952M698.883 90.8874L629.082 90.8874M629.082 1441.11L629.082 1370.05M629.082 1441.11L559.281 1441.11M629.082 1370.05L629.082 1298.98M629.082 1370.05L559.281 1370.05M629.082 1298.98L629.082 1227.92M629.082 1298.98L559.281 1298.98M629.082 1227.92L629.082 1156.85M629.082 1227.92L559.281 1227.92M629.082 1156.85L629.082 1085.79M629.082 1156.85L559.281 1156.85M629.082 1085.79L629.082 1014.73M629.082 1085.79L559.281 1085.79M629.082 1014.73L629.082 943.661M629.082 1014.73L559.281 1014.73M629.082 943.661L629.082 872.596M629.082 943.661L559.281 943.661M629.082 872.596L629.082 801.532M629.082 872.596L559.281 872.596M629.082 801.532L629.082 730.467M629.082 801.532L559.281 801.532M629.082 730.467L629.082 659.403M629.082 730.467L559.281 730.467M629.082 659.403L629.082 588.338M629.082 659.403L559.281 659.403M629.082 588.338L629.082 517.274M629.082 588.338L559.281 588.338M629.082 517.274L629.082 446.21M629.082 517.274L559.281 517.274M629.082 446.21L629.082 375.145M629.082 446.21L559.281 446.21M629.082 375.145L629.082 304.081M629.082 375.145L559.281 375.145M629.082 304.081L629.082 233.016M629.082 304.081L559.281 304.081M629.082 233.016L629.082 161.952M629.082 233.016L559.281 233.016M629.082 161.952L629.082 90.8874M629.082 161.952L559.281 161.952M629.082 90.8874L559.281 90.8874M559.281 1441.11L559.281 1370.05M559.281 1441.11L489.48 1441.11M559.281 1370.05L559.281 1298.98M559.281 1370.05L489.48 1370.05M559.281 1298.98L559.281 1227.92M559.281 1298.98L489.48 1298.98M559.281 1227.92L559.281 1156.85M559.281 1227.92L489.48 1227.92M559.281 1156.85L559.281 1085.79M559.281 1156.85L489.48 1156.85M559.281 1085.79L559.281 1014.73M559.281 1085.79L489.48 1085.79M559.281 1014.73L559.281 943.661M559.281 1014.73L489.48 1014.72M559.281 943.661L559.281 872.596M559.281 943.661L489.48 943.661M559.281 872.596L559.281 801.532M559.281 872.596L489.48 872.596M559.281 801.532L559.281 730.467M559.281 801.532L489.48 801.532M559.281 730.467L559.281 659.403M559.281 730.467L489.48 730.467M559.281 659.403L559.281 588.338M559.281 659.403L489.48 659.403M559.281 588.338L559.281 517.274M559.281 588.338L489.48 588.338M559.281 517.274L559.281 446.21M559.281 517.274L489.48 517.274M559.281 446.21L559.281 375.145M559.281 446.21L489.48 446.21M559.281 375.145L559.281 304.081M559.281 375.145L489.48 375.145M559.281 304.081L559.281 233.016M559.281 304.081L489.48 304.081M559.281 233.016L559.281 161.952M559.281 233.016L489.48 233.016M559.281 161.952L559.281 90.8874M559.281 161.952L489.48 161.952M559.281 90.8874L489.48 90.8873M489.48 1441.11L489.48 1370.05M489.48 1441.11L419.679 1441.11M489.48 1370.05L489.48 1298.98M489.48 1370.05L419.679 1370.05M489.48 1298.98L489.48 1227.92M489.48 1298.98L419.679 1298.98M489.48 1227.92L489.48 1156.85M489.48 1227.92L419.679 1227.92M489.48 1156.85L489.48 1085.79M489.48 1156.85L419.679 1156.85M489.48 1085.79L489.48 1014.72M489.48 1085.79L419.679 1085.79M489.48 1014.72L489.48 943.661M489.48 1014.72L419.679 1014.72M489.48 943.661L489.48 872.596M489.48 943.661L419.679 943.661M489.48 872.596L489.48 801.532M489.48 872.596L419.679 872.596M489.48 801.532L489.48 730.467M489.48 801.532L419.679 801.532M489.48 730.467L489.48 659.403M489.48 730.467L419.679 730.467M489.48 659.403L489.48 588.338M489.48 659.403L419.679 659.403M489.48 588.338L489.48 517.274M489.48 588.338L419.679 588.338M489.48 517.274L489.48 446.21M489.48 517.274L419.679 517.274M489.48 446.21L489.48 375.145M489.48 446.21L419.679 446.21M489.48 375.145L489.48 304.081M489.48 375.145L419.679 375.145M489.48 304.081L489.48 233.016M489.48 304.081L419.679 304.081M489.48 233.016L489.48 161.952M489.48 233.016L419.679 233.016M489.48 161.952L489.48 90.8873M489.48 161.952L419.679 161.952M489.48 90.8873L419.679 90.8873M419.679 1441.11L419.679 1370.05M419.679 1441.11L349.878 1441.11M419.679 1370.05L419.679 1298.98M419.679 1370.05L349.878 1370.05M419.679 1298.98L419.679 1227.92M419.679 1298.98L349.878 1298.98M419.679 1227.92L419.679 1156.85M419.679 1227.92L349.878 1227.92M419.679 1156.85L419.679 1085.79M419.679 1156.85L349.878 1156.85M419.679 1085.79L419.679 1014.72M419.679 1085.79L349.878 1085.79M419.679 1014.72L419.679 943.661M419.679 1014.72L349.878 1014.72M419.679 943.661L419.679 872.596M419.679 943.661L349.878 943.661M419.679 872.596L419.679 801.532M419.679 872.596L349.878 872.596M419.679 801.532L419.679 730.467M419.679 801.532L349.878 801.532M419.679 730.467L419.679 659.403M419.679 730.467L349.878 730.467M419.679 659.403L419.679 588.338M419.679 659.403L349.878 659.403M419.679 588.338L419.679 517.274M419.679 588.338L349.878 588.338M419.679 517.274L419.679 446.21M419.679 517.274L349.878 517.274M419.679 446.21L419.679 375.145M419.679 446.21L349.878 446.21M419.679 375.145L419.679 304.081M419.679 375.145L349.878 375.145M419.679 304.081L419.679 233.016M419.679 304.081L349.878 304.081M419.679 233.016L419.679 161.952M419.679 233.016L349.878 233.016M419.679 161.952L419.679 90.8873M419.679 161.952L349.878 161.952M419.679 90.8873L349.878 90.8873M349.878 1441.11L349.878 1370.05M349.878 1441.11L280.077 1441.11M349.878 1370.05L349.878 1298.98M349.878 1370.05L280.077 1370.05M349.878 1298.98L349.878 1227.92M349.878 1298.98L280.077 1298.98M349.878 1227.92L349.878 1156.85M349.878 1227.92L280.077 1227.92M349.878 1156.85L349.878 1085.79M349.878 1156.85L280.077 1156.85M349.878 1085.79L349.878 1014.72M349.878 1085.79L280.077 1085.79M349.878 1014.72L349.878 943.661M349.878 1014.72L280.077 1014.72M349.878 943.661L349.878 872.596M349.878 943.661L280.077 943.661M349.878 872.596L349.878 801.532M349.878 872.596L280.077 872.596M349.878 801.532L349.878 730.467M349.878 801.532L280.077 801.532M349.878 730.467L349.878 659.403M349.878 730.467L280.077 730.467M349.878 659.403L349.878 588.338M349.878 659.403L280.077 659.403M349.878 588.338L349.878 517.274M349.878 588.338L280.077 588.338M349.878 517.274L349.878 446.21M349.878 517.274L280.077 517.274M349.878 446.21L349.878 375.145M349.878 446.21L280.077 446.21M349.878 375.145L349.878 304.081M349.878 375.145L280.077 375.145M349.878 304.081L349.878 233.016M349.878 304.081L280.077 304.081M349.878 233.016L349.878 161.952M349.878 233.016L280.077 233.016M349.878 161.952L349.878 90.8873M349.878 161.952L280.077 161.952M349.878 90.8873L280.077 90.8873M280.077 1441.11L280.077 1370.05M280.077 1441.11L210.276 1441.11M280.077 1370.05L280.077 1298.98M280.077 1370.05L210.276 1370.05M280.077 1298.98L280.077 1227.92M280.077 1298.98L210.276 1298.98M280.077 1227.92L280.077 1156.85M280.077 1227.92L210.276 1227.92M280.077 1156.85L280.077 1085.79M280.077 1156.85L210.276 1156.85M280.077 1085.79L280.077 1014.72M280.077 1085.79L210.276 1085.79M280.077 1014.72L280.077 943.661M280.077 1014.72L210.276 1014.72M280.077 943.661L280.077 872.596M280.077 943.661L210.276 943.661M280.077 872.596L280.077 801.532M280.077 872.596L210.276 872.596M280.077 801.532L280.077 730.467M280.077 801.532L210.276 801.532M280.077 730.467L280.077 659.403M280.077 730.467L210.276 730.467M280.077 659.403L280.077 588.338M280.077 659.403L210.276 659.403M280.077 588.338L280.077 517.274M280.077 588.338L210.276 588.338M280.077 517.274L280.077 446.21M280.077 517.274L210.276 517.274M280.077 446.21L280.077 375.145M280.077 446.21L210.276 446.209M280.077 375.145L280.077 304.081M280.077 375.145L210.276 375.145M280.077 304.081L280.077 233.016M280.077 304.081L210.276 304.081M280.077 233.016L280.077 161.952M280.077 233.016L210.276 233.016M280.077 161.952L280.077 90.8873M280.077 161.952L210.276 161.952M280.077 90.8873L210.276 90.8873M210.276 1441.11L210.276 1370.05M210.276 1441.11L140.475 1441.11M210.276 1370.05L210.276 1298.98M210.276 1370.05L140.475 1370.05M210.276 1298.98L210.276 1227.92M210.276 1298.98L140.475 1298.98M210.276 1227.92L210.276 1156.85M210.276 1227.92L140.475 1227.92M210.276 1156.85L210.276 1085.79M210.276 1156.85L140.475 1156.85M210.276 1085.79L210.276 1014.72M210.276 1085.79L140.475 1085.79M210.276 1014.72L210.276 943.661M210.276 1014.72L140.475 1014.72M210.276 943.661L210.276 872.596M210.276 943.661L140.475 943.661M210.276 872.596L210.276 801.532M210.276 872.596L140.475 872.596M210.276 801.532L210.276 730.467M210.276 801.532L140.475 801.532M210.276 730.467L210.276 659.403M210.276 730.467L140.475 730.467M210.276 659.403L210.276 588.338M210.276 659.403L140.475 659.403M210.276 588.338L210.276 517.274M210.276 588.338L140.475 588.338M210.276 517.274L210.276 446.209M210.276 517.274L140.475 517.274M210.276 446.209L210.276 375.145M210.276 446.209L140.475 446.209M210.276 375.145L210.276 304.081M210.276 375.145L140.475 375.145M210.276 304.081L210.276 233.016M210.276 304.081L140.475 304.081M210.276 233.016L210.276 161.952M210.276 233.016L140.475 233.016M210.276 161.952L210.276 90.8873M210.276 161.952L140.475 161.952M210.276 90.8873L140.475 90.8873M140.475 1441.11L140.475 1370.05M140.475 1441.11L70.6737 1441.11M140.475 1370.05L140.475 1298.98M140.475 1370.05L70.6737 1370.05M140.475 1298.98L140.475 1227.92M140.475 1298.98L70.6737 1298.98M140.475 1227.92L140.475 1156.85M140.475 1227.92L70.6737 1227.92M140.475 1156.85L140.475 1085.79M140.475 1156.85L70.6737 1156.85M140.475 1085.79L140.475 1014.72M140.475 1085.79L70.6737 1085.79M140.475 1014.72L140.475 943.661M140.475 1014.72L70.6737 1014.72M140.475 943.661L140.475 872.596M140.475 943.661L70.6738 943.661M140.475 872.596L140.475 801.532M140.475 872.596L70.6738 872.596M140.475 801.532L140.475 730.467M140.475 801.532L70.6738 801.532M140.475 730.467L140.475 659.403M140.475 730.467L70.6738 730.467M140.475 659.403L140.475 588.338M140.475 659.403L70.6738 659.403M140.475 588.338L140.475 517.274M140.475 588.338L70.6738 588.338M140.475 517.274L140.475 446.209M140.475 517.274L70.6738 517.274M140.475 446.209L140.475 375.145M140.475 446.209L70.6738 446.209M140.475 375.145L140.475 304.081M140.475 375.145L70.6738 375.145M140.475 304.081L140.475 233.016M140.475 304.081L70.6738 304.081M140.475 233.016L140.475 161.952M140.475 233.016L70.6738 233.016M140.475 161.952L140.475 90.8873M140.475 161.952L70.6738 161.952M140.475 90.8873L70.6738 90.8873M70.6737 1441.11L70.6737 1370.05M70.6737 1441.11L0.872646 1441.11L0.872653 1370.05M70.6737 1370.05L70.6737 1298.98M70.6737 1370.05L0.872653 1370.05M70.6737 1298.98L70.6737 1227.92M70.6737 1298.98L0.872659 1298.98M70.6737 1227.92L70.6737 1156.85M70.6737 1227.92L0.872665 1227.92M70.6737 1156.85L70.6737 1085.79M70.6737 1156.85L0.872671 1156.85M70.6737 1085.79L70.6737 1014.72M70.6737 1085.79L0.872677 1085.79M70.6737 1014.72L70.6738 943.661M70.6737 1014.72L0.872684 1014.72M70.6738 943.661L70.6738 872.596M70.6738 943.661L0.87269 943.661M70.6738 872.596L70.6738 801.532M70.6738 872.596L0.872696 872.596M70.6738 801.532L70.6738 730.467M70.6738 801.532L0.872702 801.532M70.6738 730.467L70.6738 659.403M70.6738 730.467L0.872708 730.467M70.6738 659.403L70.6738 588.338M70.6738 659.403L0.872715 659.403M70.6738 588.338L70.6738 517.274M70.6738 588.338L0.872721 588.338M70.6738 517.274L70.6738 446.209M70.6738 517.274L0.872727 517.274M70.6738 446.209L70.6738 375.145M70.6738 446.209L0.872733 446.209M70.6738 375.145L70.6738 304.081M70.6738 375.145L0.872739 375.145M70.6738 304.081L70.6738 233.016M70.6738 304.081L0.872746 304.081M70.6738 233.016L70.6738 161.952M70.6738 233.016L0.872752 233.016M70.6738 161.952L70.6738 90.8873M70.6738 161.952L0.872758 161.952M70.6738 90.8873L0.872764 90.8873L0.872758 161.952M0.872653 1370.05L0.872659 1298.98M0.872659 1298.98L0.872665 1227.92M0.872665 1227.92L0.872671 1156.85M0.872671 1156.85L0.872677 1085.79M0.872677 1085.79L0.872684 1014.72M0.872684 1014.72L0.87269 943.661M0.87269 943.661L0.872696 872.596M0.872696 872.596L0.872702 801.532M0.872702 801.532L0.872708 730.467M0.872708 730.467L0.872715 659.403M0.872715 659.403L0.872721 588.338M0.872721 588.338L0.872727 517.274M0.872727 517.274L0.872733 446.209M0.872733 446.209L0.872739 375.145M0.872739 375.145L0.872746 304.081M0.872746 304.081L0.872752 233.016M0.872752 233.016L0.872758 161.952" stroke="url(#paint1_radial_60_3232)" stroke-width="1.74474"/>
<defs>
<radialGradient id="paint1_radial_60_3232" cx="0" cy="0" r="1" gradientUnits="userSpaceOnUse" gradientTransform="translate(3072.12 90.8876) rotate(128.768) scale(865.875 865.875)">
<stop stop-color="#7FA6FF" stop-opacity="0.3"/>
<stop offset="1" stop-color="#7FA6FF" stop-opacity="0"/>
</radialGradient>
</defs>
</g>
</svg>