<svg width="127" height="38" viewBox="0 0 127 38" fill="none" xmlns="http://www.w3.org/2000/svg">
<path d="M83.8188 35.7283C83.1662 35.0757 82.8418 34.2815 82.8418 33.3492C82.8418 32.4169 83.17 31.6003 83.8188 30.9477C84.4677 30.2951 85.2731 29.9707 86.2203 29.9707C87.1675 29.9707 87.9468 30.2989 88.5994 30.9477C89.252 31.5966 89.5764 32.402 89.5764 33.3492C89.5764 34.2964 89.2483 35.072 88.5994 35.7283C87.9506 36.3846 87.1526 36.7053 86.2203 36.7053C85.288 36.7053 84.4714 36.3772 83.8188 35.7283Z" fill="#222222"/>
<path d="M32.4034 18.094H17.8938V22.6285H26.9628C26.9292 24.0604 26.7092 25.3656 26.2953 26.5439C25.8814 27.7223 25.2698 28.7142 24.4569 29.5272C23.644 30.3401 22.652 30.9591 21.4737 31.3879C20.2953 31.8168 18.9454 32.0181 17.4165 31.9846C15.6042 31.9846 14.0343 31.6191 12.7142 30.8882C11.3941 30.1574 10.3202 29.1766 9.49231 27.9535C8.66447 26.7304 8.05291 25.3357 7.6539 23.777C7.2549 22.2183 7.05726 20.626 7.05726 19.0038C7.05726 17.3817 7.2549 15.7894 7.6539 14.2307C8.05291 12.672 8.66447 11.281 9.49231 10.0542C10.3202 8.83107 11.3941 7.85034 12.7142 7.11945C14.0343 6.38856 15.6005 6.02311 17.4165 6.02311C18.4979 6.02311 19.5308 6.16482 20.519 6.45195C21.5035 6.73909 22.3947 7.16793 23.1927 7.7422C23.987 8.31646 24.6471 9.02498 25.1729 9.86774C25.6987 10.7105 26.038 11.6912 26.1983 12.8025H32.0231C31.7993 10.8932 31.2586 9.2077 30.401 7.7422C29.5433 6.28042 28.4581 5.06103 27.1567 4.09148C25.8515 3.12193 24.3637 2.39105 22.6931 1.89509C21.0225 1.40285 19.2624 1.15674 17.4202 1.15674C14.8733 1.15674 12.5911 1.63405 10.57 2.58868C8.54887 3.54331 6.83725 4.83356 5.43886 6.45568C4.03675 8.07781 2.96279 9.97215 2.21699 12.135C1.46372 14.2904 1.09082 16.5837 1.09082 19.0001C1.09082 21.4165 1.46372 23.7584 2.21326 25.9212C2.95906 28.084 4.03302 29.9784 5.43513 31.6005C6.83352 33.2226 8.54514 34.5054 10.5663 35.4414C12.5874 36.3811 14.8696 36.851 17.4165 36.851C19.4861 36.851 22.309 36.4258 23.9348 35.8106C27.1157 34.6098 27.7161 33.8155 28.7564 32.8311C28.7564 32.8311 32.1685 29.9262 32.4034 18.094Z" fill="#222222" stroke="#222222" stroke-width="0.847059" stroke-linejoin="round"/>
<path d="M50.5418 10.6953C49.714 10.6953 48.9011 10.8557 48.1068 11.1726C47.3125 11.4896 46.5854 11.911 45.9365 12.4368C45.2839 12.9626 44.7283 13.5443 44.2659 14.1782C43.8035 14.8159 43.494 15.4685 43.3336 16.136H43.2367V11.3628H38.1279V36.0415H43.5686V24.2988C43.5686 22.9302 43.7438 21.722 44.0944 20.6705C44.4449 19.6189 44.9222 18.7388 45.5263 18.0228C46.1304 17.3069 46.8389 16.7662 47.6519 16.4007C48.4648 16.0353 49.3299 15.8526 50.2547 15.8526C50.6351 15.8526 51.0266 15.8749 51.4256 15.9234C51.8246 15.9719 52.2125 16.0278 52.5965 16.0912V10.8407C52.343 10.8109 52.0969 10.7774 51.8582 10.7438C51.6195 10.714 51.1832 10.6953 50.5456 10.6953H50.5418Z" fill="#222222" stroke="#222222" stroke-width="0.847059" stroke-linejoin="round"/>
<path d="M75.6304 14.3723C74.5639 13.2275 73.2587 12.3288 71.7149 11.6762C70.1711 11.0236 68.4147 10.6992 66.4421 10.6992C64.4694 10.6992 62.7093 11.0274 61.1692 11.6762C59.6254 12.3288 58.3203 13.2275 57.2538 14.3723C56.1873 15.5171 55.3743 16.8857 54.8187 18.478C54.2631 20.0703 53.9834 21.8043 53.9834 23.68C53.9834 25.5557 54.2631 27.3381 54.8187 28.9304C55.3743 30.5227 56.1873 31.8913 57.2538 33.0361C58.3203 34.1809 59.6254 35.0796 61.1692 35.7322C62.713 36.3847 64.4694 36.7092 66.4421 36.7092C68.4147 36.7092 70.1711 36.381 71.7149 35.7322C73.2587 35.0796 74.5639 34.1809 75.6304 33.0361C76.6969 31.8913 77.5061 30.5227 78.0654 28.9304C78.6211 27.3381 78.9007 25.5892 78.9007 23.68C78.9007 21.7707 78.6211 20.0703 78.0654 18.478C77.5098 16.8857 76.6969 15.5171 75.6304 14.3723ZM73.0536 26.8534C72.7814 27.8863 72.36 28.8185 71.7895 29.6464C71.2152 30.4742 70.4843 31.1417 69.5931 31.6526C68.7019 32.1635 67.6503 32.4171 66.4421 32.4171C65.2339 32.4171 64.1823 32.1635 63.291 31.6526C62.3998 31.1455 61.6689 30.4742 61.0947 29.6464C60.5204 28.8185 60.099 27.89 59.8305 26.8534C59.5583 25.8204 59.424 24.7614 59.424 23.68C59.424 22.5985 59.5583 21.5805 59.8305 20.5289C60.099 19.4773 60.5241 18.5488 61.0947 17.7359C61.6689 16.923 62.3998 16.2629 63.291 15.7558C64.1823 15.2486 65.2301 14.9913 66.4421 14.9913C67.654 14.9913 68.7019 15.2449 69.5931 15.7558C70.4843 16.2667 71.2152 16.9267 71.7895 17.7359C72.3638 18.5488 72.7851 19.4773 73.0536 20.5289C73.3221 21.5805 73.4601 22.6284 73.4601 23.68C73.4601 24.7315 73.3258 25.8204 73.0536 26.8534Z" fill="#222222" stroke="#222222" stroke-width="0.847059" stroke-linejoin="round"/>
<path d="M113.595 18.3249L102.225 1.96191H94.9351L106.484 18.3808L94.1035 36.0415H101.103L113.595 18.3249Z" fill="url(#paint0_radial_99_3129)"/>
<path d="M124.201 2.4873L116.349 13.7148L113.717 9.71191L118.644 2.4873H124.201Z" fill="#222222" stroke="#222222" stroke-width="1.05882"/>
<path d="M125.078 35.4673H118.938L113.424 27.1919L116.396 23.0444L125.078 35.4673Z" fill="#222222" stroke="#222222" stroke-width="1.05882"/>
<defs>
<radialGradient id="paint0_radial_99_3129" cx="0" cy="0" r="1" gradientUnits="userSpaceOnUse" gradientTransform="translate(95.3951 1.96192) rotate(74.1388) scale(34.1222 37.435)">
<stop stop-color="#F4B4DD"/>
<stop offset="0.17" stop-color="#F0B3DD"/>
<stop offset="0.33" stop-color="#E4B1DD"/>
<stop offset="0.5" stop-color="#CFAEDF"/>
<stop offset="0.66" stop-color="#B3A9E0"/>
<stop offset="0.83" stop-color="#8FA3E3"/>
<stop offset="0.99" stop-color="#639CE5"/>
<stop offset="1" stop-color="#619CE6"/>
</radialGradient>
</defs>
</svg>
